<?xml version="1.0" encoding="UTF-8" standalone="no"?>
<!-- Created with Inkscape (http://www.inkscape.org/) -->

<svg
   xmlns:osb="http://www.openswatchbook.org/uri/2009/osb"
   xmlns:dc="http://purl.org/dc/elements/1.1/"
   xmlns:cc="http://creativecommons.org/ns#"
   xmlns:rdf="http://www.w3.org/1999/02/22-rdf-syntax-ns#"
   xmlns:svg="http://www.w3.org/2000/svg"
   xmlns="http://www.w3.org/2000/svg"
   xmlns:sodipodi="http://sodipodi.sourceforge.net/DTD/sodipodi-0.dtd"
   xmlns:inkscape="http://www.inkscape.org/namespaces/inkscape"
   width="300"
   height="100"
   viewBox="0 0 79.374998 26.458335"
   version="1.1"
   id="svg8"
   inkscape:version="0.92.4 (5da689c313, 2019-01-14)"
   sodipodi:docname="arrow.svg">
  <defs
     id="defs2">
    <linearGradient
       id="linearGradient2315"
       osb:paint="solid">
      <stop
         style="stop-color:#aeaeae;stop-opacity:1;"
         offset="0"
         id="stop2313" />
    </linearGradient>
  </defs>
  <sodipodi:namedview
     id="base"
     pagecolor="#ffffff"
     bordercolor="#666666"
     borderopacity="1.0"
     inkscape:pageopacity="0.0"
     inkscape:pageshadow="2"
     inkscape:zoom="4"
     inkscape:cx="177.77335"
     inkscape:cy="122.93352"
     inkscape:document-units="mm"
     inkscape:current-layer="layer1"
     showgrid="false"
     showguides="true"
     inkscape:guide-bbox="true"
     units="px"
     inkscape:window-width="2736"
     inkscape:window-height="1699"
     inkscape:window-x="-13"
     inkscape:window-y="-13"
     inkscape:window-maximized="1">
    <sodipodi:guide
       position="29.185832,194.01095"
       orientation="1,0"
       id="guide817"
       inkscape:locked="false" />
    <sodipodi:guide
       position="110.00155,212.12865"
       orientation="1,0"
       id="guide819"
       inkscape:locked="false" />
    <sodipodi:guide
       position="69.998828,208.42759"
       orientation="1,0"
       id="guide821"
       inkscape:locked="false" />
    <sodipodi:guide
       position="100.0125,188.9125"
       orientation="1,0"
       id="guide825"
       inkscape:locked="false" />
    <sodipodi:guide
       position="69.998826,150.04512"
       orientation="0,1"
       id="guide827"
       inkscape:locked="false" />
    <sodipodi:guide
       position="63.984323,159.96082"
       orientation="0,1"
       id="guide829"
       inkscape:locked="false" />
    <sodipodi:guide
       position="38.166145,146.1823"
       orientation="1,0"
       id="guide835"
       inkscape:locked="false" />
    <sodipodi:guide
       position="42.621137,153.12038"
       orientation="1,0"
       id="guide839"
       inkscape:locked="false" />
  </sodipodi:namedview>
  <metadata
     id="metadata5">
    <rdf:RDF>
      <cc:Work
         rdf:about="">
        <dc:format>image/svg+xml</dc:format>
        <dc:type
           rdf:resource="http://purl.org/dc/dcmitype/StillImage" />
        <dc:title></dc:title>
      </cc:Work>
    </rdf:RDF>
  </metadata>
  <g
     inkscape:label="Ebene 1"
     inkscape:groupmode="layer"
     id="layer1"
     transform="translate(0,-270.54164)">
    <path
       id="path833"
       style="fill:#aeaeae;fill-opacity:1;stroke:none;stroke-width:0.26458332px;stroke-linecap:butt;stroke-linejoin:miter;stroke-opacity:1"
       d="m 0.00468922,270.05236 0.086818,0.0579 c 0.019764,-0.0102 0.044593,-0.0173 0.078031,-0.016 v -0.001 c 0.4476035,0.0173 0.89567798,0.0223 1.34358588,0.0207 0.081071,-2.6e-4 0.1625732,0.004 0.2433981,-0.002 0.07321,-0.006 0.1450128,-0.0227 0.2175563,-0.0341 0.012647,-0.003 0.029662,-0.006 0.04341,-0.009 z m 2.88251108,0.0243 c 0.026506,0.0203 -0.025003,0.0527 -0.068212,0.0832 2.461e-4,0.005 0.00238,0.009 0.00212,0.0134 -2.646e-4,0.008 -0.021378,0.0205 -0.043407,0.0315 0.00159,0.008 0.010001,0.0155 0.038759,0.0191 0.0031,5.3e-4 0.012383,10e-4 0.00931,10e-4 -0.028207,-10e-4 -0.056518,-0.002 -0.084749,-0.003 -7.937e-4,2.6e-4 -0.00466,0.002 -0.00516,0.002 -0.014314,0.005 -0.029422,0.008 -0.044442,0.009 -0.013732,10e-4 -0.038531,0.0116 -0.041341,-0.002 -0.00238,-0.0118 -5.291e-4,-0.0237 -0.00106,-0.0356 -0.055909,0.002 -0.146513,0.004 -0.1638141,0.004 -0.024818,-5.3e-4 -0.049644,-0.004 -0.074414,-0.005 -0.00825,-0.007 -0.016695,-0.0129 -0.024791,-0.0196 -0.00132,-6e-5 -0.00185,10e-4 -0.00265,5.3e-4 -5.291e-4,-2.6e-4 -7.937e-4,-10e-4 -0.00159,-0.002 -0.1297675,0.004 -0.2557171,0.0499 -0.3829235,0.0687 -0.08042,0.012 -0.1602634,0.0298 -0.2413291,0.0362 -0.081288,0.006 -0.1628881,0.002 -0.24443,0.002 -0.3977746,0.002 -0.79561798,-0.003 -1.19320728,-0.0165 L 39.767082,296.67045 79.987365,270.71803 69.998828,270.63483 39.849764,286.75478 9.9818198,270.13564 Z m -0.5053939,0.0966 c 0.00106,-3e-5 0.00212,2e-5 0.0031,0 -0.014049,-0.0117 -0.027784,-0.0238 -0.042892,-0.0341 -0.014446,-0.01 0.022966,0.0233 0.039791,0.0341 z m 0.0031,0 c 2.646e-4,2.6e-4 5.292e-4,7.9e-4 0.00106,10e-4 0.00603,2.6e-4 0.016589,-0.002 0.012409,-0.002 -0.0045,-10e-6 -0.00894,0.001 -0.013441,0.001 z"
       inkscape:connector-curvature="0" />
    <path
       style="fill:#aeaeae;fill-opacity:1;stroke:none;stroke-width:0.26458332px;stroke-linecap:butt;stroke-linejoin:miter;stroke-opacity:1"
       d="m 79.987411,270.71797 -14.832712,-0.1371 -25.304834,16.17394 z"
       id="path837"
       inkscape:connector-curvature="0" />
    <path
       id="path841"
       style="fill:#aeaeae;fill-opacity:1;stroke:none;stroke-width:0.26458332px;stroke-linecap:butt;stroke-linejoin:miter;stroke-opacity:1"
       d="m 0.00468922,270.05236 0.1121384,0.047 c 0.015134,-0.004 0.032652,-0.006 0.05271,-0.005 v -10e-4 c 0.4476035,0.0173 0.89567798,0.0223 1.34358588,0.0207 0.081071,-2.7e-4 0.1625732,0.004 0.2433981,-0.002 0.07321,-0.006 0.1450128,-0.0227 0.2175563,-0.0341 0.00106,-2.3e-4 0.00265,-2.7e-4 0.00362,-5.3e-4 z m 2.88923148,0.0362 c -8.47e-5,0.0201 -0.039534,0.0463 -0.074933,0.0713 2.461e-4,0.005 0.00238,0.009 0.00212,0.0134 -2.646e-4,0.008 -0.021378,0.0205 -0.043407,0.0315 0.00159,0.008 0.010001,0.0155 0.038759,0.0191 0.0031,5.3e-4 0.012383,10e-4 0.00931,10e-4 -0.028207,-10e-4 -0.056518,-0.002 -0.084749,-0.003 -7.937e-4,2.6e-4 -0.00466,0.002 -0.00516,0.002 -0.014314,0.005 -0.029422,0.008 -0.044442,0.009 -0.013732,10e-4 -0.038531,0.0116 -0.041341,-0.002 -0.00238,-0.0118 -5.291e-4,-0.0237 -0.00106,-0.0356 -0.055909,0.002 -0.146513,0.004 -0.1638141,0.004 -0.024818,-5.3e-4 -0.049644,-0.004 -0.074414,-0.005 -0.00825,-0.007 -0.016695,-0.0129 -0.024791,-0.0196 -0.00132,-6e-5 -0.00185,10e-4 -0.00265,5.3e-4 -5.291e-4,-2.6e-4 -7.937e-4,-10e-4 -0.00159,-0.002 -0.1297675,0.004 -0.2557171,0.0499 -0.3829235,0.0687 -0.08042,0.012 -0.1602634,0.0298 -0.2413291,0.0362 -0.081288,0.006 -0.1628881,0.002 -0.24443,0.002 -0.3307609,0.002 -0.66150068,-0.003 -0.99218748,-0.0114 L 39.849756,286.7545 14.561376,270.23355 Z m -0.5121143,0.0848 c 0.00106,-3e-5 0.00212,2e-5 0.0031,0 -0.014049,-0.0117 -0.027784,-0.0238 -0.042892,-0.0341 -0.014446,-0.01 0.022966,0.0233 0.039791,0.0341 z m 0.0031,0 c 2.646e-4,2.6e-4 5.292e-4,7.9e-4 0.00106,10e-4 0.00603,2.6e-4 0.016589,-0.002 0.012409,-0.002 -0.0045,-1e-5 -0.00894,10e-4 -0.013441,10e-4 z"
       inkscape:connector-curvature="0" />
  </g>
</svg>
