<?xml version="1.0" encoding="UTF-8" standalone="no"?>
<!-- Created with Inkscape (http://www.inkscape.org/) -->

<svg
   xmlns:dc="http://purl.org/dc/elements/1.1/"
   xmlns:cc="http://creativecommons.org/ns#"
   xmlns:rdf="http://www.w3.org/1999/02/22-rdf-syntax-ns#"
   xmlns:svg="http://www.w3.org/2000/svg"
   xmlns="http://www.w3.org/2000/svg"
   xmlns:sodipodi="http://sodipodi.sourceforge.net/DTD/sodipodi-0.dtd"
   xmlns:inkscape="http://www.inkscape.org/namespaces/inkscape"
   width="210mm"
   height="105mm"
   viewBox="0 0 210 105"
   version="1.1"
   id="svg8"
   inkscape:version="0.92.4 (5da689c313, 2019-01-14)"
   sodipodi:docname="cirp.svg">
  <defs
     id="defs2" />
  <sodipodi:namedview
     id="base"
     pagecolor="#ffffff"
     bordercolor="#666666"
     borderopacity="1.0"
     inkscape:pageopacity="0.0"
     inkscape:pageshadow="2"
     inkscape:zoom="0.98994949"
     inkscape:cx="329.27599"
     inkscape:cy="464.8612"
     inkscape:document-units="mm"
     inkscape:current-layer="layer1"
     showgrid="false"
     inkscape:window-width="2736"
     inkscape:window-height="1699"
     inkscape:window-x="-13"
     inkscape:window-y="-13"
     inkscape:window-maximized="1" />
  <metadata
     id="metadata5">
    <rdf:RDF>
      <cc:Work
         rdf:about="">
        <dc:format>image/svg+xml</dc:format>
        <dc:type
           rdf:resource="http://purl.org/dc/dcmitype/StillImage" />
        <dc:title></dc:title>
      </cc:Work>
    </rdf:RDF>
  </metadata>
  <g
     inkscape:label="Ebene 1"
     inkscape:groupmode="layer"
     id="layer1"
     transform="translate(0,-192)">
    <g
       id="g4536"
       transform="matrix(4.1513855,0,0,4.1513855,-160.94066,-568.78079)">
      <path
         style="fill:#f8f8f8;stroke-width:0.08466666"
         d="m 39.047966,196.26936 v -12.14967 h 25.018999 25.018999 v 12.14967 12.14966 H 64.066965 39.047966 Z"
         id="path4542"
         inkscape:connector-curvature="0" />
      <path
         style="fill:#fd0816;stroke-width:0.08466666"
         d="m 74.279231,208.13466 c -0.0697,-0.084 -0.08964,-2.27218 -0.07387,-8.10684 l 0.0216,-7.9918 2.476499,-0.0224 c 1.362075,-0.0123 2.4765,-0.007 2.4765,0.0109 0,0.0183 -0.131824,0.25227 -0.292943,0.51983 -0.593735,0.986 -0.865694,2.32309 -0.76977,3.78459 0.09924,1.51203 0.494949,2.54014 1.253966,3.25798 0.624675,0.5908 1.22891,0.81149 2.221747,0.81149 1.646789,0 2.700406,-0.85026 3.22807,-2.60502 0.196307,-0.65283 0.22188,-2.9674 0.04069,-3.683 -0.151864,-0.5998 -0.466487,-1.31467 -0.731542,-1.66217 -0.114888,-0.15063 -0.208887,-0.31514 -0.208887,-0.36559 0,-0.0641 0.668439,-0.0849 2.219011,-0.0692 l 2.219011,0.0226 0.187912,0.55034 c 0.366945,1.07466 0.488946,1.90778 0.48974,3.34433 6.78e-4,1.19667 -0.02632,1.4627 -0.231383,2.28096 -0.82477,3.29115 -3.026652,5.20069 -6.027291,5.22706 -1.085228,0.01 -1.692649,-0.11704 -2.565841,-0.53471 -0.506784,-0.2424 -0.879216,-0.50357 -1.3335,-0.93509 l -0.630326,-0.59875 v 3.33817 c 0,2.48346 -0.02601,3.36417 -0.1016,3.43976 -0.155443,0.15544 -3.737972,0.143 -3.8678,-0.0134 z m -28.457932,-4.7134 c -1.024203,-0.10248 -1.762327,-0.31287 -2.701496,-0.77002 -0.76703,-0.37336 -0.981975,-0.52931 -1.659488,-1.20406 -1.112109,-1.10758 -1.661314,-2.13799 -2.014955,-3.78043 -0.330656,-1.53569 -0.163269,-3.47341 0.434514,-5.03005 l 0.23067,-0.60068 2.178044,-0.0226 c 1.197925,-0.0124 2.178044,-0.001 2.178044,0.0245 0,0.0259 -0.134266,0.24563 -0.29837,0.48827 -0.610023,0.90195 -0.93833,2.56395 -0.800924,4.05455 0.128745,1.39664 0.563763,2.41998 1.324155,3.11493 0.580673,0.5307 1.117151,0.71873 2.018806,0.70754 1.518658,-0.0188 2.466019,-0.756 2.973209,-2.31353 l 0.179209,-0.55033 h 1.895124 1.895124 l -0.02974,0.33866 c -0.04422,0.50354 -0.412101,1.61356 -0.757629,2.286 -0.214933,0.41829 -0.530035,0.81985 -1.070919,1.36478 -0.658571,0.6635 -0.881689,0.82805 -1.586069,1.16974 -1.237362,0.60023 -2.890287,0.87252 -4.387311,0.72272 z m 10.202131,-0.52518 c -0.0256,-0.10563 -0.03602,-2.59236 -0.02317,-5.52606 l 0.02337,-5.334 h 1.989667 1.989666 v 5.50334 5.50333 l -1.966497,0.0227 -1.966495,0.0227 z m 7.257678,0.0889 c -0.07889,-0.0789 -0.103143,-1.35195 -0.103143,-5.41328 0,-2.92058 0.02313,-5.37041 0.05139,-5.44407 0.04558,-0.11877 0.404782,-0.13392 3.175,-0.13392 1.717984,0 3.123608,0.0286 3.123608,0.0636 0,0.035 -0.170931,0.15433 -0.379847,0.26516 -0.477104,0.2531 -1.066953,0.87796 -1.337412,1.41679 -0.488291,0.97282 -0.51091,1.19012 -0.562992,5.40874 l -0.04808,3.89467 -1.907691,0.0227 c -1.412609,0.0168 -1.934459,-0.004 -2.010833,-0.0804 z m -13.60746,-9.48844 c -0.02035,-0.0582 -0.09986,-0.29633 -0.176694,-0.52916 -0.07683,-0.23284 -0.211382,-0.52447 -0.299006,-0.64807 -0.08762,-0.12361 -0.159316,-0.24743 -0.159316,-0.27517 0,-0.0277 0.946385,-0.0504 2.103076,-0.0504 h 2.103077 l 0.08875,0.19478 c 0.134909,0.2961 0.297325,1.15439 0.244497,1.29205 -0.06427,0.16749 -3.846002,0.18298 -3.904383,0.016 z m -9.146317,-2.01455 c -0.03004,-0.0486 0.0067,-0.18197 0.08162,-0.29634 l 0.13625,-0.20794 h 6.007429 6.007429 l 0.143425,0.21889 c 0.122096,0.18634 0.125534,0.23022 0.02312,0.29504 -0.06617,0.0419 -1.069941,0.0767 -2.230607,0.0774 -2.056587,0.001 -2.126603,-0.004 -2.750754,-0.21976 -0.551941,-0.1905 -0.740038,-0.21558 -1.361032,-0.18146 -0.481189,0.0264 -0.856518,0.0999 -1.129765,0.22105 -0.384618,0.17057 -0.543173,0.18147 -2.640836,0.18147 -1.459108,0 -2.250561,-0.0306 -2.286279,-0.0884 z m 15.54201,-0.0345 c -0.05611,-0.0676 -0.08883,-0.19143 -0.07271,-0.27516 0.02723,-0.14138 0.171041,-0.15224 2.016666,-0.15224 1.845624,0 1.989438,0.0109 2.016665,0.15224 0.07129,0.37016 -0.07024,0.3981 -2.016665,0.3981 -1.506899,0 -1.86049,-0.0224 -1.943958,-0.12294 z m 7.196573,-0.0403 c -0.04804,-0.0898 -0.06453,-0.22266 -0.03664,-0.29532 0.04522,-0.11785 0.555029,-0.12995 4.718707,-0.11197 4.416946,0.0191 4.669585,0.0283 4.697322,0.17239 0.07744,0.40219 0.126169,0.3981 -4.733391,0.3981 -4.414893,0 -4.561408,-0.005 -4.645996,-0.1632 z m 11.00676,0.0403 c -0.05611,-0.0676 -0.08883,-0.19143 -0.07271,-0.27516 0.02788,-0.14481 0.360483,-0.15329 6.81941,-0.17391 l 6.790097,-0.0217 0.09443,0.17646 c 0.217879,0.40711 0.162785,0.41724 -2.265448,0.41685 -2.195842,-3.6e-4 -2.286216,-0.007 -2.860156,-0.20988 -0.808787,-0.28592 -1.646547,-0.28592 -2.455334,0 -0.582617,0.20596 -0.63807,0.20951 -3.270466,0.20988 -2.237922,3e-4 -2.694559,-0.0198 -2.779824,-0.12257 z m -33.023375,-1.00531 c 0,-0.0617 0.08818,-0.19508 0.195957,-0.29633 l 0.195957,-0.18409 h 5.165618 5.165617 l 0.192962,0.2054 c 0.10613,0.11297 0.167672,0.24632 0.136762,0.29633 -0.03912,0.0633 -1.727659,0.0909 -5.554536,0.0909 -4.509644,0 -5.498337,-0.0202 -5.498337,-0.11225 z m 14.821333,-0.009 c -0.05683,-0.0685 -0.07834,-0.20322 -0.0478,-0.29944 0.05429,-0.17106 0.09902,-0.17444 2.017828,-0.15223 l 1.962304,0.0227 v 0.254 0.254 l -1.914505,0.0227 c -1.601063,0.019 -1.931421,0.002 -2.017828,-0.10177 z m 7.196741,9e-5 c -0.05687,-0.0685 -0.07863,-0.20261 -0.04836,-0.29798 0.05326,-0.16782 0.114868,-0.1734 1.914652,-0.1734 1.64356,0 1.865794,0.0161 1.912769,0.13851 0.02923,0.0762 0.01439,0.2 -0.03298,0.27516 -0.124443,0.19745 -3.58585,0.25077 -3.746077,0.0577 z m 4.313259,-0.0349 c 0,-0.0859 0.07035,-0.21988 0.156338,-0.2977 0.139539,-0.12628 0.410199,-0.13906 2.518833,-0.11896 l 2.362495,0.0225 0.02857,0.20209 c 0.01572,0.11116 -0.02238,0.2344 -0.08467,0.27387 -0.06228,0.0395 -1.208615,0.0724 -2.547407,0.0731 -2.310031,0.001 -2.434166,-0.007 -2.434166,-0.15491 z m 6.692042,0.0333 c -0.05611,-0.0676 -0.08886,-0.19143 -0.07276,-0.27516 0.02695,-0.14017 0.176324,-0.15405 1.884781,-0.1751 1.428425,-0.0176 1.870927,0.002 1.922475,0.0847 0.05372,0.0863 0.10072,0.0866 0.237728,0.002 0.130762,-0.081 1.179166,-0.10583 4.475158,-0.10583 h 4.30439 l 0.192962,0.2054 c 0.10613,0.11297 0.167672,0.24632 0.136762,0.29633 -0.03925,0.0635 -2.004494,0.0909 -6.517836,0.0909 -5.54537,0 -6.476103,-0.0174 -6.563661,-0.12294 z M 42.349966,189.4597 c 0,-0.23292 1.221476,-0.82904 2.293812,-1.11946 0.606053,-0.16413 0.919488,-0.19275 2.108854,-0.19251 1.526909,3e-4 2.053652,0.0898 3.178057,0.54004 0.688853,0.27583 1.309277,0.6394 1.309277,0.76723 0,0.054 -1.575757,0.0836 -4.445,0.0836 -2.690359,0 -4.445,-0.0312 -4.445,-0.0789 z m 20.880002,-0.0534 c -0.0734,-0.19128 -0.06227,-0.65174 0.01884,-0.77953 0.05252,-0.0828 0.496068,-0.10226 1.92487,-0.0847 l 1.856623,0.0229 v 0.46567 0.46566 l -1.874163,0.0228 c -1.653598,0.0201 -1.880283,0.007 -1.926167,-0.11275 z m 5.19733,0.0563 c 0,-0.271 1.34535,-1.00413 2.279046,-1.24194 0.666148,-0.16966 1.750962,-0.1408 1.874525,0.0499 0.0446,0.0688 0.07127,0.37279 0.05926,0.67547 l -0.02183,0.55033 -2.0955,0.0226 c -1.257114,0.0136 -2.0955,-0.009 -2.0955,-0.0564 z m 5.791668,-0.0412 c -0.02476,-0.0645 -0.03309,-0.2836 -0.01851,-0.48683 l 0.02651,-0.36952 1.856623,-0.0229 c 2.020768,-0.0249 1.992035,-0.0315 1.994414,0.46044 0.0027,0.55836 0.08405,0.53609 -1.957753,0.53609 -1.503792,0 -1.864814,-0.0223 -1.901283,-0.11732 z m 4.669259,0.0401 c -0.02625,-0.0425 0.09532,-0.1899 0.27017,-0.3276 1.703564,-1.34168 4.629288,-1.38245 6.755007,-0.0941 0.254776,0.15441 0.463229,0.32984 0.463229,0.38986 0,0.0874 -0.740907,0.10911 -3.720336,0.10911 -2.150184,0 -3.740482,-0.0326 -3.76807,-0.0772 z m -21.57617,-0.63192 c -0.503224,-0.18769 -0.892845,-0.48662 -1.165897,-0.8945 -1.041991,-1.55653 0.01002,-3.57384 1.872625,-3.5909 1.302715,-0.0119 2.301128,0.97452 2.301128,2.27356 0,0.87255 -0.437688,1.60569 -1.209343,2.02567 -0.529822,0.28837 -1.308424,0.36896 -1.798513,0.18617 z"
         id="path4540"
         inkscape:connector-curvature="0" />
      <path
         style="fill:#12151b;stroke-width:0.08466666"
         d="m 74.279231,208.13466 c -0.0697,-0.084 -0.08964,-2.27218 -0.07387,-8.10684 l 0.0216,-7.9918 2.476499,-0.0224 c 1.362075,-0.0123 2.4765,-0.007 2.4765,0.0109 0,0.0183 -0.131824,0.25227 -0.292943,0.51983 -0.593735,0.986 -0.865694,2.32309 -0.76977,3.78459 0.09924,1.51203 0.494949,2.54014 1.253966,3.25798 0.624675,0.5908 1.22891,0.81149 2.221747,0.81149 1.646789,0 2.700406,-0.85026 3.22807,-2.60502 0.196307,-0.65283 0.22188,-2.9674 0.04069,-3.683 -0.151864,-0.5998 -0.466487,-1.31467 -0.731542,-1.66217 -0.114888,-0.15063 -0.208887,-0.31514 -0.208887,-0.36559 0,-0.0641 0.668439,-0.0849 2.219011,-0.0692 l 2.219011,0.0226 0.187912,0.55034 c 0.366945,1.07466 0.488946,1.90778 0.48974,3.34433 6.78e-4,1.19667 -0.02632,1.4627 -0.231383,2.28096 -0.82477,3.29115 -3.026652,5.20069 -6.027291,5.22706 -1.085228,0.01 -1.692649,-0.11704 -2.565841,-0.53471 -0.506784,-0.2424 -0.879216,-0.50357 -1.3335,-0.93509 l -0.630326,-0.59875 v 3.33817 c 0,2.48346 -0.02601,3.36417 -0.1016,3.43976 -0.155443,0.15544 -3.737972,0.143 -3.8678,-0.0134 z m -28.457932,-4.7134 c -1.024203,-0.10248 -1.762327,-0.31287 -2.701496,-0.77002 -0.76703,-0.37336 -0.981975,-0.52931 -1.659488,-1.20406 -1.112109,-1.10758 -1.661314,-2.13799 -2.014955,-3.78043 -0.330656,-1.53569 -0.163269,-3.47341 0.434514,-5.03005 l 0.23067,-0.60068 2.178044,-0.0226 c 1.197925,-0.0124 2.178044,-0.001 2.178044,0.0245 0,0.0259 -0.134266,0.24563 -0.29837,0.48827 -0.610023,0.90195 -0.93833,2.56395 -0.800924,4.05455 0.128745,1.39664 0.563763,2.41998 1.324155,3.11493 0.580673,0.5307 1.117151,0.71873 2.018806,0.70754 1.518658,-0.0188 2.466019,-0.756 2.973209,-2.31353 l 0.179209,-0.55033 h 1.895124 1.895124 l -0.02974,0.33866 c -0.04422,0.50354 -0.412101,1.61356 -0.757629,2.286 -0.214933,0.41829 -0.530035,0.81985 -1.070919,1.36478 -0.658571,0.6635 -0.881689,0.82805 -1.586069,1.16974 -1.237362,0.60023 -2.890287,0.87252 -4.387311,0.72272 z m 10.202131,-0.52518 c -0.0256,-0.10563 -0.03602,-2.59236 -0.02317,-5.52606 l 0.02337,-5.334 h 1.989667 1.989666 v 5.50334 5.50333 l -1.966497,0.0227 -1.966495,0.0227 z m 7.257678,0.0889 c -0.07889,-0.0789 -0.103143,-1.35195 -0.103143,-5.41328 0,-2.92058 0.02313,-5.37041 0.05139,-5.44407 0.04558,-0.11877 0.404782,-0.13392 3.175,-0.13392 1.717984,0 3.123608,0.0286 3.123608,0.0636 0,0.035 -0.170931,0.15433 -0.379847,0.26516 -0.477104,0.2531 -1.066953,0.87796 -1.337412,1.41679 -0.488291,0.97282 -0.51091,1.19012 -0.562992,5.40874 l -0.04808,3.89467 -1.907691,0.0227 c -1.412609,0.0168 -1.934459,-0.004 -2.010833,-0.0804 z m -13.60746,-9.48844 c -0.02035,-0.0582 -0.09986,-0.29633 -0.176694,-0.52916 -0.07683,-0.23284 -0.211382,-0.52447 -0.299006,-0.64807 -0.08762,-0.12361 -0.159316,-0.24743 -0.159316,-0.27517 0,-0.0277 0.946385,-0.0504 2.103076,-0.0504 h 2.103077 l 0.08875,0.19478 c 0.134909,0.2961 0.297325,1.15439 0.244497,1.29205 -0.06427,0.16749 -3.846002,0.18298 -3.904383,0.016 z m -9.146317,-2.01455 c -0.03004,-0.0486 0.0067,-0.18197 0.08162,-0.29634 l 0.13625,-0.20794 h 6.007429 6.007429 l 0.143425,0.21889 c 0.122096,0.18634 0.125534,0.23022 0.02312,0.29504 -0.06617,0.0419 -1.069941,0.0767 -2.230607,0.0774 -2.056587,0.001 -2.126603,-0.004 -2.750754,-0.21976 -0.551941,-0.1905 -0.740038,-0.21558 -1.361032,-0.18146 -0.481189,0.0264 -0.856518,0.0999 -1.129765,0.22105 -0.384618,0.17057 -0.543173,0.18147 -2.640836,0.18147 -1.459108,0 -2.250561,-0.0306 -2.286279,-0.0884 z m 15.54201,-0.0345 c -0.05611,-0.0676 -0.08883,-0.19143 -0.07271,-0.27516 0.02723,-0.14138 0.171041,-0.15224 2.016666,-0.15224 1.845624,0 1.989438,0.0109 2.016665,0.15224 0.07129,0.37016 -0.07024,0.3981 -2.016665,0.3981 -1.506899,0 -1.86049,-0.0224 -1.943958,-0.12294 z m 7.196573,-0.0403 c -0.04804,-0.0898 -0.06453,-0.22266 -0.03664,-0.29532 0.04522,-0.11785 0.555029,-0.12995 4.718707,-0.11197 4.416946,0.0191 4.669585,0.0283 4.697322,0.17239 0.07744,0.40219 0.126169,0.3981 -4.733391,0.3981 -4.414893,0 -4.561408,-0.005 -4.645996,-0.1632 z m 11.00676,0.0403 c -0.05611,-0.0676 -0.08883,-0.19143 -0.07271,-0.27516 0.02788,-0.14481 0.360483,-0.15329 6.81941,-0.17391 l 6.790097,-0.0217 0.09443,0.17646 c 0.217879,0.40711 0.162785,0.41724 -2.265448,0.41685 -2.195842,-3.6e-4 -2.286216,-0.007 -2.860156,-0.20988 -0.808787,-0.28592 -1.646547,-0.28592 -2.455334,0 -0.582617,0.20596 -0.63807,0.20951 -3.270466,0.20988 -2.237922,3e-4 -2.694559,-0.0198 -2.779824,-0.12257 z m -33.023375,-1.00531 c 0,-0.0617 0.08818,-0.19508 0.195957,-0.29633 l 0.195957,-0.18409 h 5.165618 5.165617 l 0.192962,0.2054 c 0.10613,0.11297 0.167672,0.24632 0.136762,0.29633 -0.03912,0.0633 -1.727659,0.0909 -5.554536,0.0909 -4.509644,0 -5.498337,-0.0202 -5.498337,-0.11225 z m 14.821333,-0.009 c -0.05683,-0.0685 -0.07834,-0.20322 -0.0478,-0.29944 0.05429,-0.17106 0.09902,-0.17444 2.017828,-0.15223 l 1.962304,0.0227 v 0.254 0.254 l -1.914505,0.0227 c -1.601063,0.019 -1.931421,0.002 -2.017828,-0.10177 z m 7.196741,9e-5 c -0.05687,-0.0685 -0.07863,-0.20261 -0.04836,-0.29798 0.05326,-0.16782 0.114868,-0.1734 1.914652,-0.1734 1.64356,0 1.865794,0.0161 1.912769,0.13851 0.02923,0.0762 0.01439,0.2 -0.03298,0.27516 -0.124443,0.19745 -3.58585,0.25077 -3.746077,0.0577 z m 4.313259,-0.0349 c 0,-0.0859 0.07035,-0.21988 0.156338,-0.2977 0.139539,-0.12628 0.410199,-0.13906 2.518833,-0.11896 l 2.362495,0.0225 0.02857,0.20209 c 0.01572,0.11116 -0.02238,0.2344 -0.08467,0.27387 -0.06228,0.0395 -1.208615,0.0724 -2.547407,0.0731 -2.310031,0.001 -2.434166,-0.007 -2.434166,-0.15491 z m 6.692042,0.0333 c -0.05611,-0.0676 -0.08886,-0.19143 -0.07276,-0.27516 0.02695,-0.14017 0.176324,-0.15405 1.884781,-0.1751 1.428425,-0.0176 1.870927,0.002 1.922475,0.0847 0.05372,0.0863 0.10072,0.0866 0.237728,0.002 0.130762,-0.081 1.179166,-0.10583 4.475158,-0.10583 h 4.30439 l 0.192962,0.2054 c 0.10613,0.11297 0.167672,0.24632 0.136762,0.29633 -0.03925,0.0635 -2.004494,0.0909 -6.517836,0.0909 -5.54537,0 -6.476103,-0.0174 -6.563661,-0.12294 z M 42.349966,189.4597 c 0,-0.23292 1.221476,-0.82904 2.293812,-1.11946 0.606053,-0.16413 0.919488,-0.19275 2.108854,-0.19251 1.526909,3e-4 2.053652,0.0898 3.178057,0.54004 0.688853,0.27583 1.309277,0.6394 1.309277,0.76723 0,0.054 -1.575757,0.0836 -4.445,0.0836 -2.690359,0 -4.445,-0.0312 -4.445,-0.0789 z m 20.880002,-0.0534 c -0.0734,-0.19128 -0.06227,-0.65174 0.01884,-0.77953 0.05252,-0.0828 0.496068,-0.10226 1.92487,-0.0847 l 1.856623,0.0229 v 0.46567 0.46566 l -1.874163,0.0228 c -1.653598,0.0201 -1.880283,0.007 -1.926167,-0.11275 z m 5.19733,0.0563 c 0,-0.271 1.34535,-1.00413 2.279046,-1.24194 0.666148,-0.16966 1.750962,-0.1408 1.874525,0.0499 0.0446,0.0688 0.07127,0.37279 0.05926,0.67547 l -0.02183,0.55033 -2.0955,0.0226 c -1.257114,0.0136 -2.0955,-0.009 -2.0955,-0.0564 z m 5.791668,-0.0412 c -0.02476,-0.0645 -0.03309,-0.2836 -0.01851,-0.48683 l 0.02651,-0.36952 1.856623,-0.0229 c 2.020768,-0.0249 1.992035,-0.0315 1.994414,0.46044 0.0027,0.55836 0.08405,0.53609 -1.957753,0.53609 -1.503792,0 -1.864814,-0.0223 -1.901283,-0.11732 z m 4.669259,0.0401 c -0.02625,-0.0425 0.09532,-0.1899 0.27017,-0.3276 1.703564,-1.34168 4.629288,-1.38245 6.755007,-0.0941 0.254776,0.15441 0.463229,0.32984 0.463229,0.38986 0,0.0874 -0.740907,0.10911 -3.720336,0.10911 -2.150184,0 -3.740482,-0.0326 -3.76807,-0.0772 z"
         id="path4538"
         inkscape:connector-curvature="0" />
    </g>
  </g>
</svg>
