<?xml version="1.0" encoding="UTF-8" standalone="no"?>
<!-- Created with Inkscape (http://www.inkscape.org/) -->

<svg
   xmlns:dc="http://purl.org/dc/elements/1.1/"
   xmlns:cc="http://creativecommons.org/ns#"
   xmlns:rdf="http://www.w3.org/1999/02/22-rdf-syntax-ns#"
   xmlns:svg="http://www.w3.org/2000/svg"
   xmlns="http://www.w3.org/2000/svg"
   xmlns:xlink="http://www.w3.org/1999/xlink"
   xmlns:sodipodi="http://sodipodi.sourceforge.net/DTD/sodipodi-0.dtd"
   xmlns:inkscape="http://www.inkscape.org/namespaces/inkscape"
   width="370"
   height="398"
   viewBox="0 0 97.89583 105.30417"
   version="1.1"
   id="svg8"
   inkscape:version="0.92.4 (5da689c313, 2019-01-14)"
   sodipodi:docname="Logo.svg">
  <defs
     id="defs2">
    <inkscape:perspective
       sodipodi:type="inkscape:persp3d"
       inkscape:vp_x="0 : 148.5 : 1"
       inkscape:vp_y="0 : 999.99999 : 0"
       inkscape:vp_z="209.99999 : 148.49998 : 1"
       inkscape:persp3d-origin="105.00001 : 99 : 1"
       id="perspective996" />
    <inkscape:path-effect
       is_visible="true"
       id="path-effect837"
       effect="spiro" />
    <inkscape:path-effect
       is_visible="true"
       id="path-effect845"
       effect="spiro" />
    <inkscape:path-effect
       effect="spiro"
       id="path-effect831"
       is_visible="true" />
  </defs>
  <sodipodi:namedview
     id="base"
     pagecolor="#ffffff"
     bordercolor="#666666"
     borderopacity="1.0"
     inkscape:pageopacity="0.0"
     inkscape:pageshadow="2"
     inkscape:zoom="1.28"
     inkscape:cx="242.36023"
     inkscape:cy="184.84408"
     inkscape:document-units="px"
     inkscape:current-layer="layer5"
     showgrid="false"
     showguides="true"
     inkscape:guide-bbox="true"
     inkscape:snap-page="false"
     inkscape:snap-text-baseline="false"
     showborder="true"
     inkscape:window-width="2736"
     inkscape:window-height="1699"
     inkscape:window-x="-13"
     inkscape:window-y="-13"
     inkscape:window-maximized="1"
     inkscape:snap-object-midpoints="true"
     inkscape:snap-intersection-paths="true"
     inkscape:object-paths="true"
     inkscape:snap-smooth-nodes="true"
     inkscape:snap-nodes="false"
     inkscape:snap-others="false"
     inkscape:snap-global="false"
     borderlayer="true"
     units="px">
    <sodipodi:guide
       position="121.56086,188.3983"
       orientation="0,1"
       id="guide817"
       inkscape:locked="false" />
    <sodipodi:guide
       position="92.529753,219.53802"
       orientation="1,0"
       id="guide819"
       inkscape:locked="false" />
    <sodipodi:guide
       position="107.80984,187.34592"
       orientation="1,0"
       id="guide821"
       inkscape:locked="false" />
    <sodipodi:guide
       position="124.06317,193.44969"
       orientation="1,0"
       id="guide827"
       inkscape:locked="false" />
    <sodipodi:guide
       position="61.961429,241.13391"
       orientation="0,1"
       id="guide4562"
       inkscape:locked="false" />
    <sodipodi:guide
       position="60.146084,242.52246"
       orientation="1,0"
       id="guide4580"
       inkscape:locked="false" />
    <sodipodi:guide
       position="61.118749,240.47318"
       orientation="1,0"
       id="guide4582"
       inkscape:locked="false" />
    <sodipodi:guide
       position="65.87298,240.83699"
       orientation="1,0"
       id="guide4588"
       inkscape:locked="false" />
    <sodipodi:guide
       position="66.144613,241.44086"
       orientation="1,0"
       id="guide4590"
       inkscape:locked="false" />
    <sodipodi:guide
       position="63.972631,243.53684"
       orientation="0,1"
       id="guide4592"
       inkscape:locked="false" />
    <sodipodi:guide
       position="130.00422,209.33392"
       orientation="0,1"
       id="guide906"
       inkscape:locked="false" />
    <sodipodi:guide
       position="92.521452,220.00002"
       orientation="0,1"
       id="guide1014"
       inkscape:locked="false" />
  </sodipodi:namedview>
  <metadata
     id="metadata5">
    <rdf:RDF>
      <cc:Work
         rdf:about="">
        <dc:format>image/svg+xml</dc:format>
        <dc:type
           rdf:resource="http://purl.org/dc/dcmitype/StillImage" />
        <dc:title></dc:title>
      </cc:Work>
    </rdf:RDF>
  </metadata>
  <g
     inkscape:groupmode="layer"
     id="layer3"
     inkscape:label="Ebene 3"
     transform="translate(0,-191.69586)">
    <ellipse
       style="fill:#cda102;fill-opacity:1;stroke:#000000;stroke-width:1.55962932;stroke-opacity:1"
       id="path847-4"
       cx="291.69373"
       cy="192.50815"
       rx="14.449948"
       ry="20.137165"
       transform="rotate(12.540679)" />
    <circle
       style="fill:#cda102;fill-opacity:1;stroke:#000000;stroke-width:1.32432735;stroke-opacity:1"
       id="path4560-9"
       cx="291.564"
       cy="167.22903"
       transform="rotate(12.540679)"
       r="11.215704" />
    <ellipse
       style="fill:#cda102;fill-opacity:1;stroke:#1c2326;stroke-width:1.32432735;stroke-opacity:1"
       id="path4568-5"
       cx="291.59894"
       cy="172.77896"
       rx="5.8767028"
       ry="0.35177442"
       transform="rotate(12.540679)" />
    <ellipse
       style="fill:#cda102;fill-opacity:1;stroke:#1c2326;stroke-width:1.73384309;stroke-opacity:1"
       id="path4574-7"
       cx="287.35895"
       cy="164.4415"
       rx="0.038312886"
       ry="0.9290874"
       transform="rotate(12.540679)" />
    <ellipse
       ry="0.70964652"
       rx="0.029263778"
       cy="163.9734"
       cx="296.24631"
       id="ellipse4576-0"
       style="fill:#cda102;fill-opacity:1;stroke:#1c2326;stroke-width:1.32432735;stroke-opacity:1"
       transform="rotate(12.540679)" />
    <ellipse
       ry="0.9290874"
       rx="0.038312886"
       cy="164.4415"
       cx="296.21536"
       id="ellipse4578-5"
       style="fill:#cda102;fill-opacity:1;stroke:#1c2326;stroke-width:1.73384309;stroke-opacity:1"
       transform="rotate(12.540679)" />
  </g>
  <g
     inkscape:groupmode="layer"
     id="layer4"
     inkscape:label="Ebene 4"
     transform="translate(0,-191.69586)">
    <circle
       style="fill:#93040d;fill-opacity:1;stroke:#000000;stroke-width:0.65354115;stroke-opacity:1"
       id="path932"
       cx="460.00513"
       cy="-20.884726"
       transform="rotate(34.550755)"
       r="3.5665176" />
    <circle
       cy="-20.966406"
       cx="475.36328"
       id="circle934"
       style="fill:#ffa9ae;fill-opacity:1;stroke:#000000;stroke-width:0.65354115;stroke-opacity:1"
       transform="rotate(34.550755)"
       r="3.5665176" />
    <path
       style="fill:none;stroke:#000000;stroke-width:0.65354115px;stroke-linecap:butt;stroke-linejoin:miter;stroke-opacity:1"
       d="m 393.19541,241.52336 c 0,0 17.68689,-15.8908 12.27989,7.66237"
       id="path938"
       inkscape:connector-curvature="0" />
    <path
       style="fill:none;stroke:#000000;stroke-width:0.65354115px;stroke-linecap:butt;stroke-linejoin:miter;stroke-opacity:1"
       d="m 404.77761,236.80289 9.56943,-14.04146 c 0,0 8.85465,5.2045 7.07034,15.9774"
       id="path940"
       inkscape:connector-curvature="0" />
    <path
       style="fill:none;stroke:#000000;stroke-width:0.65354115px;stroke-linecap:butt;stroke-linejoin:miter;stroke-opacity:1"
       d="m 414.34704,222.76143 c 0,0 -8.64212,-5.4549 -15.25823,-2.47252"
       id="path942"
       inkscape:connector-curvature="0" />
    <circle
       cy="-44.412239"
       cx="453.55133"
       id="circle944"
       style="fill:#7245b1;fill-opacity:1;stroke:#000000;stroke-width:0.65354115;stroke-opacity:1"
       transform="rotate(34.550755)"
       r="3.5665176" />
    <circle
       style="fill:#f1e020;fill-opacity:1;stroke:#000000;stroke-width:0.65354115;stroke-opacity:1"
       id="circle946"
       cx="482.63391"
       cy="-41.798058"
       transform="rotate(34.550755)"
       r="3.5665176" />
    <circle
       cy="-58.136604"
       cx="467.52078"
       id="circle948"
       style="fill:#b1454c;fill-opacity:1;stroke:#000000;stroke-width:0.65354115;stroke-opacity:1"
       transform="rotate(34.550755)"
       r="3.5665176" />
    <path
       style="fill:none;stroke:#000000;stroke-width:0.65354115px;stroke-linecap:butt;stroke-linejoin:miter;stroke-opacity:1"
       d="m 414.34704,222.76143 1.83247,-2.80487"
       id="path950"
       inkscape:connector-curvature="0" />
    <rect
       style="fill:#6d3500;fill-opacity:1;stroke:none;stroke-width:1.32432735;stroke-opacity:1"
       id="rect954"
       width="35.260216"
       height="24.665602"
       x="269.52191"
       y="219.96805"
       ry="1.0991459"
       rx="1.0991459"
       transform="rotate(-0.94405412)" />
    <rect
       style="fill:#8c5017;fill-opacity:1;stroke:none;stroke-width:1.32432735;stroke-opacity:1"
       id="rect960"
       width="17.265627"
       height="13.666182"
       x="279.35117"
       y="242.60048"
       ry="1.0991453"
       rx="1.0991453"
       transform="rotate(-0.94405412)" />
    <rect
       style="fill:#8c5017;fill-opacity:1;stroke:none;stroke-width:1.32432735;stroke-opacity:1"
       id="rect964"
       width="6.7043791"
       height="4.8420701"
       x="295.29578"
       y="226.78571"
       ry="0"
       rx="0"
       transform="rotate(-0.94405412)" />
    <rect
       rx="0"
       ry="0"
       y="235.80762"
       x="273.19604"
       height="4.8420701"
       width="6.7043791"
       id="rect966"
       style="fill:#ce8845;fill-opacity:1;stroke:none;stroke-width:1.32432735;stroke-opacity:1"
       transform="rotate(-0.94405412)" />
    <rect
       style="fill:#7e532a;fill-opacity:1;stroke:none;stroke-width:1.32432735;stroke-opacity:1"
       id="rect968"
       width="6.7043791"
       height="4.8420701"
       x="276.09296"
       y="224.13704"
       ry="0"
       rx="0"
       transform="rotate(-0.94405412)" />
    <rect
       style="fill:#7e532a;fill-opacity:1;stroke:none;stroke-width:1.81658006;stroke-opacity:1"
       id="rect970"
       width="1.646276"
       height="6.0174227"
       x="278.34854"
       y="214.47774"
       transform="rotate(-0.94405412)" />
    <ellipse
       style="fill:#7e532a;fill-opacity:1;stroke:none;stroke-width:2.03311181;stroke-opacity:1"
       id="path972"
       cx="279.17535"
       cy="214.42451"
       rx="0.81248504"
       ry="0.64928138"
       transform="rotate(-0.94405412)" />
    <ellipse
       style="fill:#7e532a;fill-opacity:1;stroke:none;stroke-width:1.81658006;stroke-opacity:1"
       id="path974"
       cx="279.17166"
       cy="214.42102"
       rx="0.028384063"
       ry="0.2554566"
       transform="rotate(-0.94405412)" />
    <rect
       style="fill:#7e532a;fill-opacity:1;stroke:none;stroke-width:1.81658006;stroke-opacity:1"
       id="rect976"
       width="2.774543"
       height="0.75927377"
       x="279.19296"
       y="213.79649"
       transform="rotate(-0.94405412)" />
    <rect
       style="fill:#944800;fill-opacity:1;stroke:none;stroke-width:1.81658006;stroke-opacity:1"
       id="rect981"
       width="0.50381714"
       height="1.5398355"
       x="279.47681"
       y="215.94655"
       transform="rotate(-0.94405412)" />
    <rect
       style="fill:#95775b;fill-opacity:1;stroke:none;stroke-width:1.81658006;stroke-opacity:1"
       id="rect983"
       width="0.96505833"
       height="1.1708428"
       x="278.36285"
       y="217.99739"
       transform="rotate(-0.94405412)" />
    <circle
       style="fill:#fefefe;fill-opacity:1;stroke:#000000;stroke-width:0.66216367;stroke-miterlimit:4;stroke-dasharray:none;stroke-opacity:1"
       id="path985"
       cx="279.41425"
       cy="228.99976"
       transform="rotate(-0.94405412)"
       r="1.6196185" />
    <circle
       cy="228.9791"
       cx="294.74741"
       id="circle990"
       style="fill:#fefefe;fill-opacity:1;stroke:#000000;stroke-width:0.66216367;stroke-miterlimit:4;stroke-dasharray:none;stroke-opacity:1"
       transform="rotate(-0.94405412)"
       r="1.6196185" />
    <ellipse
       style="fill:#fefefe;fill-opacity:1;stroke:#000000;stroke-width:0.66216367;stroke-miterlimit:4;stroke-dasharray:none;stroke-opacity:1"
       id="path994"
       cx="287.68088"
       cy="238.8495"
       rx="8.4425859"
       ry="1.6761018"
       transform="rotate(-0.94405412)" />
    <rect
       style="fill:#405c77;fill-opacity:1;stroke:#000000;stroke-width:0.66216367;stroke-linecap:butt;stroke-linejoin:round;stroke-miterlimit:4;stroke-dasharray:none;stroke-dashoffset:0;stroke-opacity:1"
       id="rect1012"
       width="14.236518"
       height="8.0287342"
       x="330.5683"
       y="239.59229"
       rx="0.81028634"
       ry="0.81028634"
       transform="rotate(-0.04809571)" />
    <rect
       ry="0.81028634"
       rx="0.81028634"
       y="239.55594"
       x="352.72501"
       height="8.0287342"
       width="14.236518"
       id="rect1018"
       style="fill:#405c77;fill-opacity:1;stroke:#000000;stroke-width:0.66216367;stroke-linecap:butt;stroke-linejoin:round;stroke-miterlimit:4;stroke-dasharray:none;stroke-dashoffset:0;stroke-opacity:1"
       transform="rotate(-0.04809571)" />
    <rect
       style="fill:#405c77;fill-opacity:1;stroke:#000000;stroke-width:0.66216367;stroke-linecap:butt;stroke-linejoin:round;stroke-miterlimit:4;stroke-dasharray:none;stroke-dashoffset:0;stroke-opacity:1"
       id="rect1020"
       width="8.0768013"
       height="14.514832"
       x="333.53677"
       y="225.16812"
       rx="0.81028634"
       ry="0.81028634"
       transform="rotate(-0.04809571)" />
    <rect
       ry="0.81028634"
       rx="0.81028634"
       y="225.0918"
       x="355.47809"
       height="14.514832"
       width="8.0768013"
       id="rect1026"
       style="fill:#405c77;fill-opacity:1;stroke:#000000;stroke-width:0.66216367;stroke-linecap:butt;stroke-linejoin:round;stroke-miterlimit:4;stroke-dasharray:none;stroke-dashoffset:0;stroke-opacity:1"
       transform="rotate(-0.04809571)" />
    <rect
       style="fill:#405c77;fill-opacity:1;stroke:#000000;stroke-width:0.88058549;stroke-linecap:butt;stroke-linejoin:round;stroke-miterlimit:4;stroke-dasharray:none;stroke-dashoffset:0;stroke-opacity:1"
       id="rect1028"
       width="33.009541"
       height="33.225986"
       x="331.98074"
       y="196.2934"
       rx="0.81028634"
       ry="0.81028634"
       transform="rotate(-0.04809571)" />
    <path
       style="fill:none;stroke:#000000;stroke-width:1.32432735px;stroke-linecap:butt;stroke-linejoin:miter;stroke-opacity:1"
       d="m 365.15882,200.59063 c 0,0 14.12123,-1.91558 14.63237,15.34155"
       id="path1033"
       inkscape:connector-curvature="0" />
    <path
       inkscape:connector-curvature="0"
       id="path1035"
       d="m 332.15041,201.94263 c 0,0 -14.45628,-1.89155 -14.95005,15.36651"
       style="fill:none;stroke:#000000;stroke-width:1.33979237px;stroke-linecap:butt;stroke-linejoin:miter;stroke-opacity:1" />
    <path
       style="fill:#405c77;fill-opacity:1;stroke:#000000;stroke-width:0.66216367;stroke-linecap:butt;stroke-linejoin:round;stroke-miterlimit:4;stroke-dasharray:none;stroke-dashoffset:0;stroke-opacity:1"
       id="path1041"
       sodipodi:type="arc"
       sodipodi:cx="317.05548"
       sodipodi:cy="218.64026"
       sodipodi:rx="1.9236339"
       sodipodi:ry="1.9236339"
       sodipodi:start="0"
       sodipodi:end="6.2768323"
       sodipodi:open="true"
       d="m 318.97911,218.64026 a 1.9236339,1.9236339 0 0 1 -1.92057,1.92363 1.9236339,1.9236339 0 0 1 -1.92668,-1.91752 1.9236339,1.9236339 0 0 1 1.91446,-1.92972 1.9236339,1.9236339 0 0 1 1.93276,1.91139"
       transform="rotate(-0.04809571)" />
    <path
       d="m 381.53338,216.25101 a 1.9236339,1.9236339 0 0 1 -1.92058,1.92363 1.9236339,1.9236339 0 0 1 -1.92668,-1.91752 1.9236339,1.9236339 0 0 1 1.91446,-1.92973 1.9236339,1.9236339 0 0 1 1.93276,1.9114"
       sodipodi:open="true"
       sodipodi:end="6.2768323"
       sodipodi:start="0"
       sodipodi:ry="1.9236339"
       sodipodi:rx="1.9236339"
       sodipodi:cy="216.25101"
       sodipodi:cx="379.60974"
       sodipodi:type="arc"
       id="path1043"
       style="fill:#405c77;fill-opacity:1;stroke:#000000;stroke-width:0.66216367;stroke-linecap:butt;stroke-linejoin:round;stroke-miterlimit:4;stroke-dasharray:none;stroke-dashoffset:0;stroke-opacity:1"
       transform="rotate(-0.04809571)" />
    <rect
       style="fill:#405c77;fill-opacity:1;stroke:#000000;stroke-width:0.66216367;stroke-linecap:butt;stroke-linejoin:round;stroke-miterlimit:4;stroke-dasharray:none;stroke-dashoffset:0;stroke-opacity:1"
       id="rect1051"
       width="2.1967492"
       height="0.41344163"
       x="312.93515"
       y="218.64026"
       rx="0.81028634"
       ry="0.082600236"
       transform="rotate(-0.04809571)" />
    <rect
       style="fill:#405c77;fill-opacity:1;stroke:#000000;stroke-width:0.66216367;stroke-linecap:butt;stroke-linejoin:round;stroke-miterlimit:4;stroke-dasharray:none;stroke-dashoffset:0;stroke-opacity:1"
       id="rect1053"
       width="0.37597245"
       height="2.1098728"
       x="378.90683"
       y="64.984848"
       rx="0.81028634"
       ry="0.082600266"
       transform="rotate(25.101674)" />
    <rect
       transform="rotate(2.8718843)"
       ry="0.082600266"
       rx="0.81028634"
       y="204.11905"
       x="327.46652"
       height="2.1098728"
       width="0.37597245"
       id="rect1055"
       style="fill:#405c77;fill-opacity:1;stroke:#000000;stroke-width:0.66216367;stroke-linecap:butt;stroke-linejoin:round;stroke-miterlimit:4;stroke-dasharray:none;stroke-dashoffset:0;stroke-opacity:1" />
    <rect
       style="fill:#405c77;fill-opacity:1;stroke:#000000;stroke-width:0.66216367;stroke-linecap:butt;stroke-linejoin:round;stroke-miterlimit:4;stroke-dasharray:none;stroke-dashoffset:0;stroke-opacity:1"
       id="rect1057"
       width="0.37597245"
       height="2.1098728"
       x="253.64758"
       y="292.24643"
       rx="0.81028634"
       ry="0.082600266"
       transform="rotate(-14.417286)" />
    <rect
       transform="rotate(-37.053506)"
       ry="0.082600266"
       rx="0.81028634"
       y="366.59195"
       x="123.13238"
       height="2.1098728"
       width="0.37597245"
       id="rect1059"
       style="fill:#405c77;fill-opacity:1;stroke:#000000;stroke-width:0.66216367;stroke-linecap:butt;stroke-linejoin:round;stroke-miterlimit:4;stroke-dasharray:none;stroke-dashoffset:0;stroke-opacity:1" />
    <rect
       style="fill:#405c77;fill-opacity:1;stroke:#000000;stroke-width:0.66216367;stroke-linecap:butt;stroke-linejoin:round;stroke-miterlimit:4;stroke-dasharray:none;stroke-dashoffset:0;stroke-opacity:1"
       id="rect1061"
       width="0.37597245"
       height="2.1098728"
       x="174.52504"
       y="402.33472"
       rx="0.81028634"
       ry="0.082600266"
       transform="rotate(-37.053506)" />
    <rect
       transform="rotate(-4.4455357)"
       ry="0.082600266"
       rx="0.81028634"
       y="246.48241"
       x="362.68384"
       height="2.1098728"
       width="0.37597245"
       id="rect1063"
       style="fill:#405c77;fill-opacity:1;stroke:#000000;stroke-width:0.66216367;stroke-linecap:butt;stroke-linejoin:round;stroke-miterlimit:4;stroke-dasharray:none;stroke-dashoffset:0;stroke-opacity:1" />
    <rect
       style="fill:#405c77;fill-opacity:1;stroke:#000000;stroke-width:0.66216367;stroke-linecap:butt;stroke-linejoin:round;stroke-miterlimit:4;stroke-dasharray:none;stroke-dashoffset:0;stroke-opacity:1"
       id="rect1065"
       width="0.37597245"
       height="2.1098728"
       x="362.68384"
       y="246.48241"
       rx="0.81028634"
       ry="0.082600266"
       transform="rotate(-4.4455357)" />
    <rect
       transform="rotate(5.6206243)"
       ry="0.082600266"
       rx="0.81028634"
       y="179.63251"
       x="398.79239"
       height="2.1098728"
       width="0.37597245"
       id="rect1067"
       style="fill:#405c77;fill-opacity:1;stroke:#000000;stroke-width:0.66216367;stroke-linecap:butt;stroke-linejoin:round;stroke-miterlimit:4;stroke-dasharray:none;stroke-dashoffset:0;stroke-opacity:1" />
    <rect
       style="fill:#405c77;fill-opacity:1;stroke:#000000;stroke-width:0.66216367;stroke-linecap:butt;stroke-linejoin:round;stroke-miterlimit:4;stroke-dasharray:none;stroke-dashoffset:0;stroke-opacity:1"
       id="rect1069"
       width="0.37597245"
       height="2.1098728"
       x="380.69009"
       y="212.453"
       rx="0.81028634"
       ry="0.082600266"
       transform="rotate(0.72684429)" />
    <rect
       transform="rotate(43.177354)"
       ry="0.082600266"
       rx="0.81028634"
       y="-101.2494"
       x="422.83051"
       height="2.1098728"
       width="0.37597245"
       id="rect1071"
       style="fill:#405c77;fill-opacity:1;stroke:#000000;stroke-width:0.66216367;stroke-linecap:butt;stroke-linejoin:round;stroke-miterlimit:4;stroke-dasharray:none;stroke-dashoffset:0;stroke-opacity:1" />
    <rect
       style="fill:#405c77;fill-opacity:1;stroke:#1d4062;stroke-width:0.66216367;stroke-linecap:butt;stroke-linejoin:round;stroke-miterlimit:4;stroke-dasharray:none;stroke-dashoffset:0;stroke-opacity:1"
       id="rect1081"
       width="0.33108184"
       height="1.7174871"
       x="334.78958"
       y="245.40686"
       rx="0.81028634"
       ry="0.082600266"
       transform="rotate(-0.04809571)" />
    <rect
       ry="0.082600266"
       rx="0.81028634"
       y="245.40686"
       x="337.02438"
       height="1.7174871"
       width="0.33108184"
       id="rect1083"
       style="fill:#405c77;fill-opacity:1;stroke:#1d4062;stroke-width:0.66216367;stroke-linecap:butt;stroke-linejoin:round;stroke-miterlimit:4;stroke-dasharray:none;stroke-dashoffset:0;stroke-opacity:1"
       transform="rotate(-0.04809571)" />
    <rect
       style="fill:#405c77;fill-opacity:1;stroke:#1d4062;stroke-width:0.66216367;stroke-linecap:butt;stroke-linejoin:round;stroke-miterlimit:4;stroke-dasharray:none;stroke-dashoffset:0;stroke-opacity:1"
       id="rect1085"
       width="0.33108184"
       height="1.7174871"
       x="339.32117"
       y="245.42752"
       rx="0.81028634"
       ry="0.082600266"
       transform="rotate(-0.04809571)" />
    <rect
       ry="0.082600266"
       rx="0.81028634"
       y="245.40686"
       x="341.2825"
       height="1.7174871"
       width="0.33108184"
       id="rect1087"
       style="fill:#405c77;fill-opacity:1;stroke:#1d4062;stroke-width:0.66216367;stroke-linecap:butt;stroke-linejoin:round;stroke-miterlimit:4;stroke-dasharray:none;stroke-dashoffset:0;stroke-opacity:1"
       transform="rotate(-0.04809571)" />
    <rect
       style="fill:#405c77;fill-opacity:1;stroke:#1d4062;stroke-width:0.66216367;stroke-linecap:butt;stroke-linejoin:round;stroke-miterlimit:4;stroke-dasharray:none;stroke-dashoffset:0;stroke-opacity:1"
       id="rect1089"
       width="0.33108184"
       height="1.7174871"
       x="356.51224"
       y="245.32401"
       rx="0.81028634"
       ry="0.082600266"
       transform="rotate(-0.04809571)" />
    <rect
       ry="0.082600266"
       rx="0.81028634"
       y="245.32401"
       x="358.47803"
       height="1.7174871"
       width="0.33108184"
       id="rect1091"
       style="fill:#405c77;fill-opacity:1;stroke:#1d4062;stroke-width:0.66216367;stroke-linecap:butt;stroke-linejoin:round;stroke-miterlimit:4;stroke-dasharray:none;stroke-dashoffset:0;stroke-opacity:1"
       transform="rotate(-0.04809571)" />
    <rect
       style="fill:#405c77;fill-opacity:1;stroke:#1d4062;stroke-width:0.66216367;stroke-linecap:butt;stroke-linejoin:round;stroke-miterlimit:4;stroke-dasharray:none;stroke-dashoffset:0;stroke-opacity:1"
       id="rect1093"
       width="0.33108184"
       height="1.7174871"
       x="360.1955"
       y="245.30341"
       rx="0.81028634"
       ry="0.082600266"
       transform="rotate(-0.04809571)" />
    <rect
       ry="0.082600266"
       rx="0.81028634"
       y="245.34479"
       x="362.20273"
       height="1.7174871"
       width="0.33108184"
       id="rect1095"
       style="fill:#405c77;fill-opacity:1;stroke:#1d4062;stroke-width:0.66216367;stroke-linecap:butt;stroke-linejoin:round;stroke-miterlimit:4;stroke-dasharray:none;stroke-dashoffset:0;stroke-opacity:1"
       transform="rotate(-0.04809571)" />
    <path
       style="fill:none;stroke:#1d4062;stroke-width:1.26921642px;stroke-linecap:butt;stroke-linejoin:miter;stroke-opacity:1"
       d="m 334.06171,233.15656 7.41851,-0.0354"
       id="path1099"
       inkscape:connector-curvature="0" />
    <path
       style="fill:none;stroke:#1d4062;stroke-width:1.32431626px;stroke-linecap:butt;stroke-linejoin:miter;stroke-opacity:1"
       d="m 336.94336,233.13964 -0.0285,6.16997"
       id="path1101"
       inkscape:connector-curvature="0" />
    <path
       style="fill:none;stroke:#000000;stroke-width:1.32432735px;stroke-linecap:butt;stroke-linejoin:miter;stroke-opacity:1"
       d="m 357.5092,195.99343 7.65267,8.28047"
       id="path1103"
       inkscape:connector-curvature="0" />
    <path
       style="fill:#1d4062;fill-opacity:1;stroke:#1d4062;stroke-width:1.32432735px;stroke-linecap:butt;stroke-linejoin:miter;stroke-opacity:1"
       d="m 340.18013,209.59218 0.17201,7.03534 9.10538,0.73729 -0.70886,-6.16579 z"
       id="path1105"
       inkscape:connector-curvature="0" />
    <path
       style="fill:none;stroke:#1d4062;stroke-width:1.30690348px;stroke-linecap:butt;stroke-linejoin:miter;stroke-opacity:1"
       d="m 357.41246,228.77284 0.0972,-32.35761"
       id="path1107"
       inkscape:connector-curvature="0" />
    <path
       style="fill:none;stroke:#000000;stroke-width:1.32432735px;stroke-linecap:butt;stroke-linejoin:miter;stroke-opacity:1"
       d="m 350.38177,195.9994 0.0541,-4.95255"
       id="path1109"
       inkscape:connector-curvature="0" />
    <path
       style="fill:#405c77;fill-opacity:1;stroke:#000000;stroke-width:0.55155694;stroke-linecap:butt;stroke-linejoin:round;stroke-miterlimit:4;stroke-dasharray:none;stroke-dashoffset:0;stroke-opacity:1"
       id="path1113"
       sodipodi:type="arc"
       sodipodi:cx="350.2464"
       sodipodi:cy="189.53305"
       sodipodi:rx="4.7992592"
       sodipodi:ry="4.284133"
       sodipodi:start="0"
       sodipodi:end="6.2768323"
       sodipodi:open="true"
       d="m 355.04566,189.53305 a 4.7992592,4.284133 0 0 1 -4.79164,4.28413 4.7992592,4.284133 0 0 1 -4.80686,-4.27052 4.7992592,4.284133 0 0 1 4.77637,-4.29769 4.7992592,4.284133 0 0 1 4.82203,4.25686"
       transform="rotate(-0.04809571)" />
    <rect
       style="fill:#405c77;fill-opacity:1;stroke:#000000;stroke-width:0.66216367;stroke-linecap:butt;stroke-linejoin:round;stroke-miterlimit:4;stroke-dasharray:none;stroke-dashoffset:0;stroke-opacity:1"
       id="rect1117"
       width="14.339252"
       height="5.3260083"
       x="343.25223"
       y="182.50327"
       rx="0.81028634"
       ry="0.082600266"
       transform="rotate(-0.04809571)" />
    <path
       style="fill:none;stroke:#1d4062;stroke-width:1.13751876px;stroke-linecap:butt;stroke-linejoin:miter;stroke-opacity:1"
       d="m 352.09467,182.20776 -4.25079,5.32961"
       id="path1119"
       inkscape:connector-curvature="0" />
    <path
       style="fill:#ffffff;fill-opacity:1;stroke:#1d4062;stroke-width:0.66216367;stroke-linecap:butt;stroke-linejoin:round;stroke-miterlimit:4;stroke-dasharray:none;stroke-dashoffset:0;stroke-opacity:1"
       id="path1121"
       sodipodi:type="arc"
       sodipodi:cx="-353.95575"
       sodipodi:cy="-185.53384"
       sodipodi:rx="1.3450198"
       sodipodi:ry="1.2001715"
       sodipodi:start="0"
       sodipodi:end="6.2768323"
       sodipodi:open="true"
       d="m -352.61073,-185.53384 a 1.3450198,1.2001715 0 0 1 -1.34288,1.20017 1.3450198,1.2001715 0 0 1 -1.34715,-1.19636 1.3450198,1.2001715 0 0 1 1.3386,-1.20397 1.3450198,1.2001715 0 0 1 1.3514,1.19253"
       transform="rotate(179.92472)" />
  </g>
  <g
     inkscape:groupmode="layer"
     id="layer2"
     inkscape:label="Ebene 2"
     transform="translate(0,-191.69586)">
    <rect
       style="fill:#8899a0;fill-opacity:1;stroke:none;stroke-width:1.32432735;stroke-opacity:1"
       id="rect844"
       width="178.15788"
       height="36.404137"
       x="221.03354"
       y="247.38686" />
  </g>
  <g
     inkscape:label="Ebene 1"
     inkscape:groupmode="layer"
     id="layer1"
     transform="translate(0,-191.69586)">
    <path
       style="fill:none;stroke:#000000;stroke-width:0.26458332px;stroke-linecap:butt;stroke-linejoin:miter;stroke-opacity:1"
       d="m 91.883919,108.6017 c 5.231832,-1.10727 10.578211,-1.67252 15.925921,-1.68379 5.45684,-0.0115 10.91473,0.55392 16.25333,1.68379"
       id="path829"
       inkscape:connector-curvature="0"
       inkscape:path-effect="#path-effect831"
       inkscape:original-d="m 91.883919,108.6017 c 5.223158,-0.56153 10.617541,-1.12279 15.925921,-1.68379 5.30837,-0.561 10.83582,1.12226 16.25333,1.68379"
       transform="matrix(5.0053316,0,0,5.0053316,-230.21388,-264.71287)" />
    <text
       xml:space="preserve"
       style="font-style:normal;font-weight:normal;font-size:22.93057251px;line-height:1.25;font-family:sans-serif;letter-spacing:0px;word-spacing:0px;fill:#000000;fill-opacity:1;stroke:none;stroke-width:0.35876545"
       id="text835"><textPath
         xlink:href="#path829"
         id="textPath840"
         style="font-style:normal;font-variant:normal;font-weight:normal;font-stretch:normal;font-size:23.98890686px;line-height:101;font-family:Comfortaa;-inkscape-font-specification:Comfortaa;stroke-width:0.35876545">Team Jatrian</textPath></text>
    <g
       id="g908"
       transform="matrix(0.00642556,0,0,0.00642556,7.9295835,211.20605)"
       style="fill:#000000;stroke:none">
      <path
         id="path904"
         d="m 6235,12720 c -685,-101 -1290,-1201 -1633,-2970 -22,-113 -48,-254 -57,-315 -10,-60 -21,-114 -25,-118 -5,-5 -86,19 -181,53 -714,257 -1457,455 -2019,539 -480,72 -939,80 -1243,21 -133,-26 -308,-87 -402,-141 -148,-83 -269,-229 -318,-384 -18,-57 -22,-93 -22,-195 1,-134 23,-242 81,-388 247,-622 1010,-1436 2126,-2266 l 187,-139 -189,-143 C 1762,5686 1166,5121 788,4613 551,4295 407,4012 355,3762 c -20,-96 -19,-267 1,-346 116,-452 665,-641 1594,-550 644,63 1486,273 2390,597 85,30 161,57 169,59 10,2 20,-39 42,-167 286,-1688 814,-2852 1434,-3160 136,-68 232,-89 380,-82 174,7 301,55 460,175 501,373 925,1313 1190,2637 29,149 66,348 81,443 15,94 31,172 35,172 5,0 63,-21 131,-46 68,-25 256,-90 418,-145 1548,-519 2728,-643 3294,-346 94,49 226,172 270,252 170,309 76,726 -282,1250 -369,541 -1055,1209 -1852,1805 -69,51 -129,96 -133,100 -4,4 89,80 207,169 722,543 1323,1107 1692,1586 311,406 475,769 476,1060 0,181 -47,309 -156,424 -332,349 -1104,411 -2248,180 -442,-89 -925,-224 -1501,-419 -165,-56 -301,-99 -303,-97 -3,2 -18,82 -34,178 -204,1179 -533,2120 -948,2704 -86,121 -290,322 -396,391 -177,114 -357,160 -531,134 z m 284,-293 c 97,-34 205,-103 300,-193 348,-328 666,-1050 880,-2002 93,-411 194,-1003 176,-1021 -6,-5 -181,-78 -390,-161 -436,-175 -728,-299 -968,-410 l -168,-78 -112,53 c -276,130 -786,347 -1229,524 -176,70 -208,86 -208,104 0,38 70,442 120,687 108,537 233,978 392,1382 257,656 578,1060 902,1134 87,20 216,12 305,-19 z m 4909,-2693 c 342,-50 562,-190 631,-402 28,-84 29,-229 1,-335 -114,-446 -619,-1058 -1436,-1738 -258,-215 -817,-642 -879,-671 -18,-8 -50,11 -205,122 -314,224 -676,459 -1065,692 l -140,84 -7,95 c -3,52 -11,186 -18,299 -18,340 -52,655 -107,1013 -14,92 -23,170 -20,173 19,19 621,224 952,324 705,213 1329,338 1810,364 122,6 376,-4 483,-20 z m -9313,-32 c 421,-56 848,-149 1363,-298 309,-89 999,-318 1019,-338 3,-3 -4,-56 -15,-118 -60,-323 -100,-698 -135,-1278 l -12,-194 -220,-135 c -121,-74 -431,-276 -689,-449 -257,-172 -474,-311 -481,-308 -34,13 -452,325 -685,512 -938,750 -1519,1442 -1616,1923 -77,386 157,629 673,700 118,17 627,5 798,-17 z m 2835,-814 c 273,-103 629,-258 944,-411 l 148,-72 -108,-44 c -140,-56 -408,-190 -599,-299 -82,-47 -253,-142 -380,-212 -126,-70 -251,-140 -277,-155 l -48,-27 v 34 c 0,171 91,1056 126,1221 7,35 7,35 194,-35 z m 2954,54 c 9,-16 56,-299 76,-462 27,-222 67,-810 56,-810 -3,0 -55,31 -115,69 -261,165 -870,490 -1154,617 l -109,48 64,32 c 165,82 1138,511 1165,513 6,1 14,-3 17,-7 z M 6789,8023 c 355,-180 922,-489 1202,-655 l 66,-39 7,-63 c 29,-283 34,-871 11,-1299 -8,-155 -16,-324 -18,-376 l -2,-93 -144,-90 C 7662,5251 7170,4984 6743,4773 l -412,-204 -448,225 c -456,229 -824,428 -1103,597 l -155,94 -12,75 c -30,196 -37,375 -37,885 1,460 11,753 30,860 5,27 28,43 242,167 425,246 879,487 1202,638 118,55 229,107 245,114 17,8 38,15 49,15 10,1 210,-96 445,-216 z M 4287,6788 c -8,-263 -8,-486 0,-740 6,-200 9,-364 8,-366 -7,-8 -516,315 -868,551 -216,145 -266,182 -255,192 73,68 1113,755 1123,743 2,-2 -2,-173 -8,-380 z m 4241,285 c 266,-163 949,-624 967,-652 6,-11 -63,-63 -292,-219 -182,-123 -836,-544 -838,-539 -1,1 3,74 8,162 10,184 3,1301 -8,1328 -4,9 -4,17 -1,17 4,0 77,-43 164,-97 z M 3415,5931 c 211,-141 516,-327 790,-483 l 130,-74 7,-179 c 15,-390 61,-882 114,-1225 14,-91 26,-174 27,-184 2,-24 -83,-58 -508,-201 -1502,-506 -2625,-635 -3095,-356 -173,103 -259,267 -247,471 32,556 780,1407 2115,2407 l 203,152 122,-91 c 67,-50 221,-156 342,-237 z m 6490,201 c 1449,-1059 2252,-2007 2175,-2570 -58,-427 -578,-586 -1490,-456 -586,83 -1341,292 -2174,601 l -238,88 6,40 c 3,22 17,111 30,198 51,318 86,687 107,1092 6,121 11,220 12,221 1,0 94,56 207,124 377,226 844,534 1105,729 93,69 62,77 260,-67 z M 5040,4928 c 96,-52 272,-147 390,-211 212,-115 445,-227 548,-263 28,-10 52,-21 52,-25 0,-8 -365,-184 -571,-275 -264,-116 -685,-281 -694,-272 -13,12 -73,445 -95,678 -11,120 -30,467 -30,557 v 53 l 113,-74 c 61,-41 191,-116 287,-168 z m 2990,56 c -12,-204 -33,-441 -55,-624 -23,-190 -66,-464 -75,-473 -8,-9 -251,79 -472,172 -321,133 -803,360 -791,372 4,4 64,31 133,60 265,112 918,454 1157,606 59,39 109,69 111,68 1,-1 -2,-83 -8,-181 z M 6588,4172 c 364,-182 704,-329 1187,-514 l 90,-34 -3,-34 c -7,-76 -76,-496 -113,-690 C 7562,1938 7290,1197 6970,771 6890,666 6739,522 6654,472 c -465,-277 -922,46 -1302,918 -211,486 -400,1189 -533,1979 -21,129 -39,239 -39,245 0,6 35,24 78,40 175,66 698,278 842,342 85,37 261,121 390,185 129,65 236,118 238,118 2,1 119,-57 260,-127 z"
         inkscape:connector-curvature="0" />
      <path
         id="path906"
         d="m 6165,7045 c -272,-60 -468,-253 -521,-515 -30,-148 5,-325 90,-453 86,-130 246,-241 406,-284 102,-28 303,-25 400,6 250,77 417,246 476,481 24,93 15,241 -19,338 -72,207 -252,365 -481,422 -93,23 -257,26 -351,5 z"
         inkscape:connector-curvature="0" />
    </g>
  </g>
  <g
     inkscape:groupmode="layer"
     id="layer5"
     inkscape:label="Ebene 5">
    <path
       style="fill:#000000;fill-opacity:1;stroke:none;stroke-width:0.73081517;stroke-linecap:butt;stroke-linejoin:round;stroke-miterlimit:4;stroke-dasharray:none;stroke-dashoffset:0;stroke-opacity:1"
       d="M 45.33905,105.1709 C 39.28221,104.66026 33.696946,103.07286 28.394225,100.35498 15.806305,93.90312 7.0099515,81.894415 4.6733395,67.971442 3.7501975,62.470788 3.9309055,56.033666 5.1578785,50.711411 c 1.049653,-4.553093 3.002619,-9.437706 5.1959455,-12.995717 0.346893,-0.562727 0.754118,-1.227241 0.904947,-1.476695 l 0.274235,-0.453555 -0.703456,0.348137 c -0.8975025,0.444169 -1.9856595,0.615378 -3.0195005,0.475083 -0.870461,-0.118123 -2.008037,-0.600948 -2.444697,-1.037606 -0.385617,-0.385617 -0.339128,-0.943904 0.102705,-1.233406 0.355206,-0.232738 0.406411,-0.223668 1.301179,0.230492 1.643777,0.834337 3.3765065,0.568021 4.4797715,-0.688528 0.635246,-0.723505 0.89435,-1.411816 0.89435,-2.37585 0,-0.926856 -0.245645,-1.616207 -0.817634,-2.294536 -0.216819,-0.257123 -2.6201745,-2.114434 -5.3407915,-4.127357 -2.720621,-2.012924 -4.98504204,-3.760088 -5.03204704,-3.882586 -0.218628,-0.569734 0.59949504,-1.31573 1.10422504,-1.006873 0.105055,0.06429 2.449356,1.789195 5.209556,3.833128 3.5999735,2.665789 5.1571445,3.907085 5.5088735,4.391389 0.718751,0.989675 0.995722,2.006282 0.917017,3.365865 l -0.06531,1.12821 1.268814,-1.470975 c 2.317843,-2.687147 5.855336,-5.890654 8.289423,-7.506797 0.424738,-0.282011 0.754819,-0.528377 0.73351,-0.547478 -0.0213,-0.0191 -0.418608,0.03505 -0.882883,0.120348 -3.802957,0.69865 -7.601675,-3.24536 -6.9605,-7.226716 0.478594,-2.971796 3.154095,-5.238445 6.183337,-5.238445 1.695492,0 3.147451,0.620041 4.348157,1.856828 0.785804,0.809418 3.777398,5.654721 3.777398,6.118025 0,0.389334 -0.433925,0.794928 -0.850453,0.794928 -0.221729,0 -0.479216,-0.246023 -0.863973,-0.82551 l -0.548108,-0.82551 -0.103005,0.603386 c -0.136821,0.801478 -0.621414,1.878638 -1.128861,2.509264 -0.401534,0.499002 -0.350197,0.481037 2.089486,-0.731153 3.011043,-1.496076 5.604955,-2.453755 8.93231,-3.297831 1.509374,-0.382893 2.280875,-0.633843 1.965357,-0.639282 -0.70431,-0.01213 -1.923775,-0.643661 -2.491515,-1.290281 -0.702601,-0.80022 -0.918893,-1.431536 -1.669318,-4.872403 L 35.027824,7.2840134 34.136525,7.4700105 c -1.070229,0.2233358 -1.413412,0.096681 -1.413412,-0.5216327 0,-0.4840938 0.229354,-0.653079 1.098912,-0.8096655 0.320077,-0.057638 0.653825,-0.1456928 0.741654,-0.195677 0.110381,-0.062817 0.03307,-0.6550645 -0.250373,-1.9179181 -0.225539,-1.0048707 -0.378351,-1.9321596 -0.339587,-2.0606418 0.10151,-0.3364493 0.661326,-0.5533777 1.053587,-0.408263 0.399264,0.1477066 0.475115,0.3444666 0.909468,2.3592825 0.384508,1.7836047 0.30317,1.7233483 1.828961,1.3549315 1.228995,-0.2967526 1.639766,-0.2797654 1.829994,0.075679 0.369757,0.6908978 -0.01125,0.9610326 -1.883704,1.3355424 -0.511879,0.1023811 -0.960641,0.2642026 -0.997252,0.3596037 -0.12274,0.319859 1.258911,6.2116745 1.598938,6.8183985 0.506802,0.904301 1.114293,1.166638 2.479464,1.070724 0.896297,-0.06297 1.173363,-0.03316 1.352007,0.145487 0.297717,0.297717 0.284628,0.771336 -0.0311,1.125244 -0.245375,0.275049 -0.243888,0.283289 0.03654,0.202428 0.416219,-0.120012 2.796776,-0.365151 4.643901,-0.478204 1.281377,-0.07843 1.544635,-0.132322 1.414171,-0.28952 -0.116818,-0.14076 -0.077,-1.612858 0.146794,-5.426893 0.353676,-6.0275614 0.365657,-6.1307545 0.734557,-6.3281856 0.722781,-0.3868191 1.172626,0.01553 1.172626,1.048813 v 0.7373829 l 0.603308,-0.5450469 c 0.91962,-0.8308216 1.76342,-1.1521331 3.05077,-1.1616985 1.6494,-0.012256 2.58084,0.5085131 2.19592,1.227737 -0.13915,0.2600184 -0.30126,0.2836355 -1.79563,0.2615996 -1.37661,-0.0203 -1.74921,0.024154 -2.30041,0.2744504 -0.698758,0.3173034 -1.533574,1.1563371 -1.770469,1.7794145 -0.0787,0.2070018 -0.241614,2.0249058 -0.362032,4.0397866 -0.120417,2.014881 -0.280416,3.81141 -0.355552,3.992286 -0.118306,0.2848 -0.09198,0.328867 0.196445,0.328867 2.217998,0 6.968558,0.646695 9.684523,1.318358 0.94959,0.234836 1.73333,0.412471 1.74164,0.394746 0.008,-0.01773 0.76268,-2.40007 1.6764,-5.294098 0.91371,-2.8940276 1.71611,-5.3725176 1.78311,-5.5077551 0.29945,-0.6045055 1.43758,-0.332037 1.43758,0.3441586 0,0.3768217 -3.19934,10.4966485 -3.39939,10.7526035 -0.096,0.122863 -0.0775,0.202665 0.0577,0.248526 1.96961,0.668062 5.99361,2.347146 6.48417,2.705636 0.0804,0.05875 0.71894,0.415251 1.41899,0.792231 l 1.27282,0.68542 -0.39584,-0.844764 c -0.35159,-0.750303 -0.39585,-1.016375 -0.39585,-2.379475 0,-1.412092 0.0361,-1.610853 0.45162,-2.487695 0.63271,-1.335111 1.89682,-2.656409 3.10866,-3.249289 0.91645,-0.448365 1.06092,-0.474945 2.58164,-0.474945 1.53898,0 1.65639,0.02237 2.63094,0.501296 3.14132,1.543756 4.48495,5.090436 3.07705,8.122323 -0.52455,1.129604 -3.6977,5.594832 -4.05691,5.708841 -0.28158,0.08937 -0.187,0.220605 0.92816,1.287898 0.68293,0.653615 1.74482,1.745323 2.35976,2.426019 0.97432,1.078516 1.14192,1.207981 1.30359,1.007015 0.10203,-0.126836 2.27802,-1.528456 4.83554,-3.114706 4.9536,-3.072382 5.16321,-3.161295 5.53401,-2.34748 0.19141,0.420118 -0.11672,1.014583 -0.60647,1.170023 -0.48446,0.153762 -0.3456,0.309467 0.57546,0.645304 1.24922,0.455488 2.34289,1.502125 3.03684,2.906245 0.5063,1.024421 0.54935,1.209921 0.54803,2.36171 -0.003,2.677594 -0.8359,3.569227 -6.52125,6.981569 -1.41552,0.849595 -1.67663,1.060402 -1.56361,1.262364 0.40984,0.732348 1.82786,4.52615 2.32087,6.209348 1.02802,3.509714 1.74593,7.981929 1.74593,10.876148 v 1.425985 h -0.49993 -0.49994 l -0.0748,-0.913519 c -0.0412,-0.502436 -0.14284,-1.768573 -0.22595,-2.813638 -0.55166,-6.936179 -3.08283,-14.138574 -7.06292,-20.097417 C 74.010094,19.993901 53.410979,13.0102 34.64526,19.395757 c -3.726902,1.268182 -6.857674,2.828462 -10.25344,5.109999 -2.552409,1.714903 -3.943228,2.879891 -6.50933,5.452383 -6.611874,6.628347 -10.7554415,14.837133 -12.2238235,24.216509 -0.286708,1.831364 -0.329351,2.662034 -0.329351,6.415561 0,4.93017 0.207714,6.752916 1.222455,10.727368 3.9401925,15.432614 15.9693895,27.492291 31.3601285,31.439593 16.55846,4.24679 34.007215,-1.54082 44.723695,-14.834475 4.03542,-5.005877 6.80731,-10.563987 8.32416,-16.691301 0.80505,-3.252044 1.03685,-4.873696 1.33823,-9.36226 l 0.0859,-1.278925 h 0.49844 0.49845 v 1.572147 c 0,4.377949 -1.22331,10.249622 -3.1178,14.964876 -4.14024,10.304767 -11.75571,18.548078 -21.65683,23.442278 -4.92366,2.4338 -9.18965,3.73145 -14.397045,4.37935 -2.22688,0.27706 -6.845906,0.39269 -8.870029,0.22204 z M 91.464944,38.292171 c 1.89867,-1.189845 3.12912,-2.063121 3.49898,-2.483303 1.34556,-1.528643 1.16439,-3.666897 -0.46079,-5.438489 -0.76827,-0.837483 -1.67341,-1.25275 -2.73017,-1.25257 -0.96191,1.46e-4 -0.9543,-0.0036 -4.51975,2.232705 -1.54425,0.968577 -2.86915,1.761046 -2.94423,1.761046 -0.23358,0 -0.16113,0.139991 0.70394,1.360146 1.04127,1.468689 2.4698,3.738243 3.04099,4.831345 0.23671,0.453001 0.44211,0.823796 0.45645,0.823987 0.0143,1.45e-4 1.3439,-0.825501 2.95458,-1.834867 z M 77.989664,26.132275 c 0.0914,-0.221072 0.31478,-0.623824 0.4963,-0.895006 l 0.33003,-0.493058 -0.35034,0.111192 c -0.19269,0.06116 -0.83764,0.151486 -1.43322,0.200732 l -1.08289,0.08954 0.85934,0.68775 c 0.47264,0.378263 0.89426,0.690686 0.93693,0.694274 0.0427,0.0036 0.1524,-0.174352 0.24385,-0.395424 z m 1.1517,-2.819207 c 0.95881,-0.46415 1.90282,-1.440145 2.37019,-2.450482 0.51424,-1.111674 0.55075,-2.828643 0.0818,-3.84685 -0.44613,-0.968652 -1.26719,-1.811544 -2.22076,-2.279824 -0.70935,-0.348346 -1.00458,-0.406009 -2.06975,-0.404251 -1.05813,0.0017 -1.35164,0.05942 -1.97907,0.388867 -0.94112,0.494165 -1.88849,1.522692 -2.37625,2.579824 -1.14449,2.480458 0.26544,5.415834 3.03985,6.328778 0.68271,0.224649 2.3906,0.0535 3.15401,-0.316062 z M 24.350391,21.515543 c 1.652906,-0.843988 2.522361,-2.221954 2.524771,-4.001404 0.0019,-1.361586 -0.394552,-2.431494 -1.255739,-3.389342 -2.215436,-2.464098 -6.0916,-1.986928 -7.585305,0.933778 -0.38064,0.744281 -0.438865,1.014699 -0.438761,2.037797 1.35e-4,1.378851 0.397869,2.410379 1.325133,3.436752 0.964748,1.06786 2.006971,1.481373 3.571209,1.416915 0.837295,-0.0345 1.276321,-0.13713 1.858692,-0.434496 z"
       id="path933"
       inkscape:connector-curvature="0" />
    <path
       style="fill:#000000;fill-opacity:1;stroke:none;stroke-width:1.32291675;stroke-linecap:butt;stroke-linejoin:round;stroke-miterlimit:4;stroke-dasharray:none;stroke-dashoffset:0;stroke-opacity:1"
       id="path935"
       sodipodi:type="arc"
       sodipodi:cx="66.058723"
       sodipodi:cy="4.4484539"
       sodipodi:rx="1.3475565"
       sodipodi:ry="1.3475565"
       sodipodi:start="0"
       sodipodi:end="6.2768323"
       sodipodi:open="true"
       d="m 67.40628,4.4484539 a 1.3475565,1.3475565 0 0 1 -1.345416,1.3475548 1.3475565,1.3475565 0 0 1 -1.34969,-1.3432743 1.3475565,1.3475565 0 0 1 1.341129,-1.3518217 1.3475565,1.3475565 0 0 1 1.35395,1.3389802" />
  </g>
</svg>
