<?xml version="1.0" encoding="UTF-8" standalone="no"?>
<!-- Created with Inkscape (http://www.inkscape.org/) -->

<svg
   xmlns:dc="http://purl.org/dc/elements/1.1/"
   xmlns:cc="http://creativecommons.org/ns#"
   xmlns:rdf="http://www.w3.org/1999/02/22-rdf-syntax-ns#"
   xmlns:svg="http://www.w3.org/2000/svg"
   xmlns="http://www.w3.org/2000/svg"
   xmlns:sodipodi="http://sodipodi.sourceforge.net/DTD/sodipodi-0.dtd"
   xmlns:inkscape="http://www.inkscape.org/namespaces/inkscape"
   width="295mm"
   height="297mm"
   viewBox="0 0 295 297"
   version="1.1"
   id="svg8"
   inkscape:version="0.92.4 (5da689c313, 2019-01-14)"
   sodipodi:docname="Logo_Neu_1.svg">
  <defs
     id="defs2" />
  <sodipodi:namedview
     id="base"
     pagecolor="#ffffff"
     bordercolor="#666666"
     borderopacity="1.0"
     inkscape:pageopacity="0.0"
     inkscape:pageshadow="2"
     inkscape:zoom="0.7"
     inkscape:cx="568.09811"
     inkscape:cy="584.11663"
     inkscape:document-units="mm"
     inkscape:current-layer="layer1"
     showgrid="false"
     inkscape:window-width="2736"
     inkscape:window-height="1699"
     inkscape:window-x="-13"
     inkscape:window-y="-13"
     inkscape:window-maximized="1" />
  <metadata
     id="metadata5">
    <rdf:RDF>
      <cc:Work
         rdf:about="">
        <dc:format>image/svg+xml</dc:format>
        <dc:type
           rdf:resource="http://purl.org/dc/dcmitype/StillImage" />
        <dc:title></dc:title>
      </cc:Work>
    </rdf:RDF>
  </metadata>
  <g
     inkscape:label="Ebene 1"
     inkscape:groupmode="layer"
     id="layer1">
    <g
       style="clip-rule:evenodd;fill-rule:evenodd;stroke-linecap:round;stroke-linejoin:round;stroke-miterlimit:1.5"
       id="g1114"
       transform="matrix(0.26458333,0,0,0.26458333,-134.43654,-13.707689)">
      <g
         transform="matrix(2.34479,0,0,2.34479,-349.239,-352.094)"
         id="Plasma">
        <g
   id="g817"
   transform="translate(-116.029,-88.4029)">
            <circle
   id="circle815"
   style="fill:none;stroke:#000000;stroke-width:7px"
   r="209.26601"
   cy="502.44601"
   cx="718.50403" />

        </g>

        <g
   id="g821"
   transform="matrix(0.838767,0,0,0.838767,-0.182299,-7.392)">
            <circle
   id="circle819"
   style="fill:none;stroke:#000000;stroke-width:8.35000038px"
   r="209.26601"
   cy="502.44601"
   cx="718.50403" />

        </g>

    </g>
      <g
         transform="matrix(2.34479,0,0,2.34479,-548.546,-319.166)"
         id="Elektromagnete">
        <g
   id="g826"
   transform="matrix(0.995764,0,0,0.995764,267.263,64.2743)">
            <path
   id="path824"
   style="stroke:#000000;stroke-width:2.22000003px"
   d="m 452,116 -15,-15 h -30 l -15,15 v 59.734 l 15,15 h 30 l 15,-15 z"
   inkscape:connector-curvature="0" />

        </g>

        <g
   id="g830"
   transform="matrix(0.704111,-0.704111,0.704111,0.704111,152.946,459.741)">
            <path
   id="path828"
   style="stroke:#000000;stroke-width:2.22000003px"
   d="m 452,116 -15,-15 h -30 l -15,15 v 59.734 l 15,15 h 30 l 15,-15 z"
   inkscape:connector-curvature="0" />

        </g>

        <g
   id="g834"
   transform="matrix(0,-0.995764,0.995764,0,351.749,820.212)">
            <path
   id="path832"
   style="stroke:#000000;stroke-width:2.22000003px"
   d="m 452,116 -15,-15 h -30 l -15,15 v 59.734 l 15,15 h 30 l 15,-15 z"
   inkscape:connector-curvature="0" />

        </g>

        <g
   id="g838"
   transform="matrix(-0.704111,-0.704111,0.704111,-0.704111,747.216,934.529)">
            <path
   id="path836"
   style="stroke:#000000;stroke-width:2.22000003px"
   d="m 452,116 -15,-15 h -30 l -15,15 v 59.734 l 15,15 h 30 l 15,-15 z"
   inkscape:connector-curvature="0" />

        </g>

        <g
   id="g842"
   transform="matrix(-0.995764,0,0,-0.995764,1107.69,735.726)">
            <path
   id="path840"
   style="stroke:#000000;stroke-width:2.22000003px"
   d="m 452,116 -15,-15 h -30 l -15,15 v 59.734 l 15,15 h 30 l 15,-15 z"
   inkscape:connector-curvature="0" />

        </g>

        <g
   id="g846"
   transform="matrix(0,0.995764,-0.995764,0,1023.2,-20.2122)">
            <path
   id="path844"
   style="stroke:#000000;stroke-width:2.22000003px"
   d="m 452,116 -15,-15 h -30 l -15,15 v 59.734 l 15,15 h 30 l 15,-15 z"
   inkscape:connector-curvature="0" />

        </g>

        <g
   id="g850"
   transform="matrix(-0.704111,0.704111,-0.704111,-0.704111,1222,340.259)">
            <path
   id="path848"
   style="stroke:#000000;stroke-width:2.22000003px"
   d="m 452,116 -15,-15 h -30 l -15,15 v 59.734 l 15,15 h 30 l 15,-15 z"
   inkscape:connector-curvature="0" />

        </g>

        <g
   id="g854"
   transform="matrix(0.704111,0.704111,-0.704111,0.704111,627.734,-134.529)">
            <path
   id="path852"
   style="stroke:#000000;stroke-width:2.22000003px"
   d="m 452,116 -15,-15 h -30 l -15,15 v 59.734 l 15,15 h 30 l 15,-15 z"
   inkscape:connector-curvature="0" />

        </g>

    </g>
      <g
         id="g861"
         transform="matrix(1.76093,0.0180603,-0.0180603,1.76093,-292.68,-80.5016)">
        <text
   id="text859"
   style="font-size:96.32700348px;font-family:Montserrat-Regular, Montserrat"
   y="424"
   x="612">F<tspan
   id="tspan857"
   y="424"
   x="671.24103">u</tspan>
sion</text>

    </g>
      <g
         id="Bends">
        <g
   id="g865"
   transform="matrix(0.537931,0,0,0.885514,516.448,23.7192)">
            <path
   id="path863"
   style="fill:none;stroke:#000000;stroke-width:14.48999977px"
   d="m 990,207.18 c 0,0 14.9,-58.85 145,-79.18"
   inkscape:connector-curvature="0" />

        </g>

        <g
   id="g869"
   transform="matrix(0.50549,-0.183983,0.302864,0.832111,345.923,246.685)">
            <path
   id="path867"
   style="fill:none;stroke:#000000;stroke-width:14.48999977px"
   d="m 990,207.18 c 0,0 14.9,-58.85 145,-79.18"
   inkscape:connector-curvature="0" />

        </g>

        <g
   id="g873"
   transform="matrix(0.465862,-0.268966,0.442757,0.766878,292.216,376.933)">
            <path
   id="path871"
   style="fill:none;stroke:#000000;stroke-width:14.48999977px"
   d="m 990,207.18 c 0,0 14.9,-58.85 145,-79.18"
   inkscape:connector-curvature="0" />

        </g>

        <g
   id="g877"
   transform="matrix(0.412079,-0.345775,0.569197,0.678343,261.941,514.528)">
            <path
   id="path875"
   style="fill:none;stroke:#000000;stroke-width:14.48999977px"
   d="m 990,207.18 c 0,0 14.9,-58.85 145,-79.18"
   inkscape:connector-curvature="0" />

        </g>

        <g
   id="g881"
   transform="matrix(0.345775,-0.412079,0.678343,0.569197,256.02,655.29)">
            <path
   id="path879"
   style="fill:none;stroke:#000000;stroke-width:14.48999977px"
   d="m 990,207.18 c 0,0 14.9,-58.85 145,-79.18"
   inkscape:connector-curvature="0" />

        </g>

        <g
   id="g885"
   transform="matrix(0.268966,-0.465862,0.766878,0.442757,274.631,794.941)">
            <path
   id="path883"
   style="fill:none;stroke:#000000;stroke-width:14.48999977px"
   d="m 990,207.18 c 0,0 14.9,-58.85 145,-79.18"
   inkscape:connector-curvature="0" />

        </g>

        <g
   id="g889"
   transform="matrix(0.183983,-0.50549,0.832111,0.302864,317.21,929.239)">
            <path
   id="path887"
   style="fill:none;stroke:#000000;stroke-width:14.48999977px"
   d="m 990,207.18 c 0,0 14.9,-58.85 145,-79.18"
   inkscape:connector-curvature="0" />

        </g>

        <g
   id="g893"
   transform="matrix(0.0934107,-0.529759,0.872061,0.153768,382.463,1054.1)">
            <path
   id="path891"
   style="fill:none;stroke:#000000;stroke-width:14.48999977px"
   d="m 990,207.18 c 0,0 14.9,-58.85 145,-79.18"
   inkscape:connector-curvature="0" />

        </g>

        <g
   id="g897"
   transform="matrix(0,-0.537931,0.885514,0,468.407,1165.74)">
            <path
   id="path895"
   style="fill:none;stroke:#000000;stroke-width:14.48999977px"
   d="m 990,207.18 c 0,0 14.9,-58.85 145,-79.18"
   inkscape:connector-curvature="0" />

        </g>

        <g
   id="g901"
   transform="matrix(0.529759,-0.0934107,0.153768,0.872061,421.432,127.743)">
            <path
   id="path899"
   style="fill:none;stroke:#000000;stroke-width:14.48999977px"
   d="m 990,207.18 c 0,0 14.9,-58.85 145,-79.18"
   inkscape:connector-curvature="0" />

        </g>

        <g
   id="g905"
   transform="matrix(-0.0934107,-0.529759,0.872061,-0.153768,572.43,1260.76)">
            <path
   id="path903"
   style="fill:none;stroke:#000000;stroke-width:14.48999977px"
   d="m 990,207.18 c 0,0 14.9,-58.85 145,-79.18"
   inkscape:connector-curvature="0" />

        </g>

        <g
   id="g909"
   transform="matrix(-0.183983,-0.50549,0.832111,-0.302864,691.373,1336.26)">
            <path
   id="path907"
   style="fill:none;stroke:#000000;stroke-width:14.48999977px"
   d="m 990,207.18 c 0,0 14.9,-58.85 145,-79.18"
   inkscape:connector-curvature="0" />

        </g>

        <g
   id="g913"
   transform="matrix(-0.268966,-0.465862,0.766878,-0.442757,821.62,1389.97)">
            <path
   id="path911"
   style="fill:none;stroke:#000000;stroke-width:14.48999977px"
   d="m 990,207.18 c 0,0 14.9,-58.85 145,-79.18"
   inkscape:connector-curvature="0" />

        </g>

        <g
   id="g917"
   transform="matrix(-0.345775,-0.412079,0.678343,-0.569197,959.216,1420.25)">
            <path
   id="path915"
   style="fill:none;stroke:#000000;stroke-width:14.48999977px"
   d="m 990,207.18 c 0,0 14.9,-58.85 145,-79.18"
   inkscape:connector-curvature="0" />

        </g>

        <g
   id="g921"
   transform="matrix(-0.412079,-0.345775,0.569197,-0.678343,1099.98,1426.17)">
            <path
   id="path919"
   style="fill:none;stroke:#000000;stroke-width:14.48999977px"
   d="m 990,207.18 c 0,0 14.9,-58.85 145,-79.18"
   inkscape:connector-curvature="0" />

        </g>

        <g
   id="g925"
   transform="matrix(-0.465862,-0.268966,0.442757,-0.766878,1239.63,1407.56)">
            <path
   id="path923"
   style="fill:none;stroke:#000000;stroke-width:14.48999977px"
   d="m 990,207.18 c 0,0 14.9,-58.85 145,-79.18"
   inkscape:connector-curvature="0" />

        </g>

        <g
   id="g929"
   transform="matrix(-0.50549,-0.183983,0.302864,-0.832111,1373.93,1364.98)">
            <path
   id="path927"
   style="fill:none;stroke:#000000;stroke-width:14.48999977px"
   d="m 990,207.18 c 0,0 14.9,-58.85 145,-79.18"
   inkscape:connector-curvature="0" />

        </g>

        <g
   id="g933"
   transform="matrix(-0.529759,-0.0934107,0.153768,-0.872061,1498.79,1299.72)">
            <path
   id="path931"
   style="fill:none;stroke:#000000;stroke-width:14.48999977px"
   d="m 990,207.18 c 0,0 14.9,-58.85 145,-79.18"
   inkscape:connector-curvature="0" />

        </g>

        <g
   id="g937"
   transform="matrix(-0.529759,0.0934107,-0.153768,-0.872061,1705.44,1109.76)">
            <path
   id="path935"
   style="fill:none;stroke:#000000;stroke-width:14.48999977px"
   d="m 990,207.18 c 0,0 14.9,-58.85 145,-79.18"
   inkscape:connector-curvature="0" />

        </g>

        <g
   id="g941"
   transform="matrix(-0.537931,0,0,-0.885514,1610.43,1213.78)">
            <path
   id="path939"
   style="fill:none;stroke:#000000;stroke-width:14.48999977px"
   d="m 990,207.18 c 0,0 14.9,-58.85 145,-79.18"
   inkscape:connector-curvature="0" />

        </g>

        <g
   id="g945"
   transform="matrix(-0.50549,0.183983,-0.302864,-0.832111,1780.95,990.815)">
            <path
   id="path943"
   style="fill:none;stroke:#000000;stroke-width:14.48999977px"
   d="m 990,207.18 c 0,0 14.9,-58.85 145,-79.18"
   inkscape:connector-curvature="0" />

        </g>

        <g
   id="g949"
   transform="matrix(-0.465862,0.268966,-0.442757,-0.766878,1834.66,860.567)">
            <path
   id="path947"
   style="fill:none;stroke:#000000;stroke-width:14.48999977px"
   d="m 990,207.18 c 0,0 14.9,-58.85 145,-79.18"
   inkscape:connector-curvature="0" />

        </g>

        <g
   id="g953"
   transform="matrix(-0.345775,0.412079,-0.678343,-0.569197,1870.86,582.21)">
            <path
   id="path951"
   style="fill:none;stroke:#000000;stroke-width:14.48999977px"
   d="m 990,207.18 c 0,0 14.9,-58.85 145,-79.18"
   inkscape:connector-curvature="0" />

        </g>

        <g
   id="g957"
   transform="matrix(-0.412079,0.345775,-0.569197,-0.678343,1864.93,722.972)">
            <path
   id="path955"
   style="fill:none;stroke:#000000;stroke-width:14.48999977px"
   d="m 990,207.18 c 0,0 14.9,-58.85 145,-79.18"
   inkscape:connector-curvature="0" />

        </g>

        <g
   id="g961"
   transform="matrix(-0.268966,0.465862,-0.766878,-0.442757,1852.24,442.559)">
            <path
   id="path959"
   style="fill:none;stroke:#000000;stroke-width:14.48999977px"
   d="m 990,207.18 c 0,0 14.9,-58.85 145,-79.18"
   inkscape:connector-curvature="0" />

        </g>

        <g
   id="g965"
   transform="matrix(-0.183983,0.50549,-0.832111,-0.302864,1809.67,308.261)">
            <path
   id="path963"
   style="fill:none;stroke:#000000;stroke-width:14.48999977px"
   d="m 990,207.18 c 0,0 14.9,-58.85 145,-79.18"
   inkscape:connector-curvature="0" />

        </g>

        <g
   id="g969"
   transform="matrix(-0.0934107,0.529759,-0.872061,-0.153768,1744.41,183.397)">
            <path
   id="path967"
   style="fill:none;stroke:#000000;stroke-width:14.48999977px"
   d="m 990,207.18 c 0,0 14.9,-58.85 145,-79.18"
   inkscape:connector-curvature="0" />

        </g>

        <g
   id="g973"
   transform="matrix(0.0934107,0.529759,-0.872061,0.153768,1554.44,-23.2554)">
            <path
   id="path971"
   style="fill:none;stroke:#000000;stroke-width:14.48999977px"
   d="m 990,207.18 c 0,0 14.9,-58.85 145,-79.18"
   inkscape:connector-curvature="0" />

        </g>

        <g
   id="g977"
   transform="matrix(0,0.537931,-0.885514,0,1658.47,71.7607)">
            <path
   id="path975"
   style="fill:none;stroke:#000000;stroke-width:14.48999977px"
   d="m 990,207.18 c 0,0 14.9,-58.85 145,-79.18"
   inkscape:connector-curvature="0" />

        </g>

        <g
   id="g981"
   transform="matrix(0.183983,0.50549,-0.832111,0.302864,1435.5,-98.7644)">
            <path
   id="path979"
   style="fill:none;stroke:#000000;stroke-width:14.48999977px"
   d="m 990,207.18 c 0,0 14.9,-58.85 145,-79.18"
   inkscape:connector-curvature="0" />

        </g>

        <g
   id="g985"
   transform="matrix(0.268966,0.465862,-0.766878,0.442757,1305.25,-152.472)">
            <path
   id="path983"
   style="fill:none;stroke:#000000;stroke-width:14.48999977px"
   d="m 990,207.18 c 0,0 14.9,-58.85 145,-79.18"
   inkscape:connector-curvature="0" />

        </g>

        <g
   id="g989"
   transform="matrix(0.345775,0.412079,-0.678343,0.569197,1167.66,-182.747)">
            <path
   id="path987"
   style="fill:none;stroke:#000000;stroke-width:14.48999977px"
   d="m 990,207.18 c 0,0 14.9,-58.85 145,-79.18"
   inkscape:connector-curvature="0" />

        </g>

        <g
   id="g993"
   transform="matrix(0.412079,0.345775,-0.569197,0.678343,1026.9,-188.668)">
            <path
   id="path991"
   style="fill:none;stroke:#000000;stroke-width:14.48999977px"
   d="m 990,207.18 c 0,0 14.9,-58.85 145,-79.18"
   inkscape:connector-curvature="0" />

        </g>

        <g
   id="g997"
   transform="matrix(0.465862,0.268966,-0.442757,0.766878,887.246,-170.056)">
            <path
   id="path995"
   style="fill:none;stroke:#000000;stroke-width:14.48999977px"
   d="m 990,207.18 c 0,0 14.9,-58.85 145,-79.18"
   inkscape:connector-curvature="0" />

        </g>

        <g
   id="g1001"
   transform="matrix(0.50549,0.183983,-0.302864,0.832111,752.948,-127.477)">
            <path
   id="path999"
   style="fill:none;stroke:#000000;stroke-width:14.48999977px"
   d="m 990,207.18 c 0,0 14.9,-58.85 145,-79.18"
   inkscape:connector-curvature="0" />

        </g>

        <g
   id="g1005"
   transform="matrix(0.529759,0.0934107,-0.153768,0.872061,628.084,-62.2247)">
            <path
   id="path1003"
   style="fill:none;stroke:#000000;stroke-width:14.48999977px"
   d="m 990,207.18 c 0,0 14.9,-58.85 145,-79.18"
   inkscape:connector-curvature="0" />

        </g>

    </g>
    </g>
  </g>
</svg>
